<?xml version="1.0" encoding="utf-8"?>
<!-- Generator: Adobe Illustrator 23.0.1, SVG Export Plug-In . SVG Version: 6.00 Build 0)  -->
<svg version="1.1" id="Layer_1" xmlns="http://www.w3.org/2000/svg" xmlns:xlink="http://www.w3.org/1999/xlink" x="0px" y="0px"
	 viewBox="0 0 373 373" style="enable-background:new 0 0 373 373;" xml:space="preserve">
<style type="text/css">
	.st0{fill:url(#SVGID_1_);}
	.st1{opacity:0.5;fill:#FFFFFF;stroke:#FFFFFF;stroke-miterlimit:10;enable-background:new    ;}
	.st2{opacity:0.9;fill:none;stroke:#FFFFFF;stroke-width:15;stroke-miterlimit:10;enable-background:new    ;}
	.st3{fill:none;}
	.st4{enable-background:new    ;}
</style>
<radialGradient id="SVGID_1_" cx="186.5" cy="361.5" r="186.5" gradientTransform="matrix(1 0 0 -1 0 548)" gradientUnits="userSpaceOnUse">
	<stop  offset="6.926126e-08" style="stop-color:#FFFFFF"/>
	<stop  offset="0.6842" style="stop-color:#F3161D"/>
	<stop  offset="1" style="stop-color:#C5161D"/>
</radialGradient>
<circle class="st0" cx="186.5" cy="186.5" r="186.5"/>
<circle class="st1" cx="187" cy="182" r="95.5"/>
<ellipse class="st2" cx="187" cy="182" rx="110.5" ry="112.5"/>
<rect x="144.5" y="161" class="st3" width="85" height="62"/>
<g class="st4">
	<path d="M159.9,239.5h-20.6v-77.6c-7.5,7-16.4,12.2-26.6,15.6v-18.7c5.4-1.8,11.2-5.1,17.5-10c6.3-4.9,10.6-10.6,13-17.2h16.7
		V239.5z"/>
	<path d="M225.4,131.7c10.4,0,18.5,3.7,24.4,11.1c7,8.8,10.5,23.4,10.5,43.7c0,20.3-3.5,34.9-10.5,43.8c-5.8,7.3-13.9,11-24.3,11
		c-10.4,0-18.9-4-25.3-12c-6.4-8-9.6-22.4-9.6-43c0-20.2,3.5-34.8,10.5-43.7C206.9,135.3,215,131.7,225.4,131.7z M225.4,148.7
		c-2.5,0-4.7,0.8-6.7,2.4c-2,1.6-3.5,4.4-4.5,8.5c-1.4,5.3-2.1,14.3-2.1,26.9s0.6,21.3,1.9,26c1.3,4.7,2.9,7.9,4.8,9.4
		c1.9,1.6,4.1,2.3,6.6,2.3s4.7-0.8,6.7-2.4c2-1.6,3.5-4.4,4.5-8.5c1.4-5.3,2.1-14.2,2.1-26.8s-0.6-21.3-1.9-26
		c-1.3-4.7-2.9-7.9-4.8-9.4C230.1,149.5,227.9,148.7,225.4,148.7z"/>
</g>
</svg>
