<?xml version="1.0" encoding="utf-8"?>
<!-- Generator: Adobe Illustrator 23.0.1, SVG Export Plug-In . SVG Version: 6.00 Build 0)  -->
<svg version="1.1" id="Layer_1" xmlns="http://www.w3.org/2000/svg" xmlns:xlink="http://www.w3.org/1999/xlink" x="0px" y="0px"
	 viewBox="0 0 373 373" style="enable-background:new 0 0 373 373;" xml:space="preserve">
<style type="text/css">
	.st0{fill:url(#SVGID_1_);}
	.st1{opacity:0.5;fill:#FFFFFF;stroke:#FFFFFF;stroke-miterlimit:10;enable-background:new    ;}
	.st2{opacity:0.9;fill:none;stroke:#FFFFFF;stroke-width:15;stroke-miterlimit:10;enable-background:new    ;}
	.st3{fill:none;}
	.st4{enable-background:new    ;}
</style>
<radialGradient id="SVGID_1_" cx="186.5" cy="361.5" r="186.5" gradientTransform="matrix(1 0 0 -1 0 548)" gradientUnits="userSpaceOnUse">
	<stop  offset="6.926126e-08" style="stop-color:#FFFFFF"/>
	<stop  offset="0.6797" style="stop-color:#0B8643"/>
	<stop  offset="1" style="stop-color:#0B6C43"/>
</radialGradient>
<circle class="st0" cx="186.5" cy="186.5" r="186.5"/>
<circle class="st1" cx="187" cy="182" r="95.5"/>
<ellipse class="st2" cx="187" cy="182" rx="110.5" ry="112.5"/>
<rect x="144.5" y="151" class="st3" width="85" height="62"/>
<g class="st4">
	<path d="M181.3,215.9V235h-72.1c0.8-7.2,3.1-14.1,7-20.5c3.9-6.5,11.6-15.1,23.1-25.7c9.3-8.6,15-14.5,17.1-17.6
		c2.8-4.2,4.2-8.4,4.2-12.6c0-4.6-1.2-8.1-3.7-10.6c-2.5-2.5-5.9-3.7-10.2-3.7c-4.3,0-7.7,1.3-10.3,3.9c-2.5,2.6-4,6.9-4.4,12.9
		l-20.5-2.1c1.2-11.3,5.1-19.5,11.5-24.4c6.4-4.9,14.5-7.4,24.2-7.4c10.6,0,18.9,2.9,25,8.6c6.1,5.7,9.1,12.8,9.1,21.3
		c0,4.8-0.9,9.4-2.6,13.8c-1.7,4.4-4.5,8.9-8.2,13.7c-2.5,3.2-7,7.7-13.5,13.7c-6.5,6-10.6,9.9-12.3,11.9c-1.7,2-3.1,3.9-4.2,5.7
		H181.3z"/>
	<path d="M230,127.2c10.4,0,18.5,3.7,24.4,11.1c7,8.8,10.5,23.4,10.5,43.7c0,20.3-3.5,34.9-10.5,43.8c-5.8,7.3-13.9,11-24.3,11
		c-10.4,0-18.9-4-25.3-12c-6.4-8-9.6-22.4-9.6-43c0-20.2,3.5-34.8,10.5-43.7C211.5,130.8,219.6,127.2,230,127.2z M230,144.2
		c-2.5,0-4.7,0.8-6.7,2.4c-2,1.6-3.5,4.4-4.5,8.5c-1.4,5.3-2.1,14.3-2.1,26.9s0.6,21.3,1.9,26c1.3,4.7,2.9,7.8,4.8,9.4
		c1.9,1.6,4.1,2.3,6.6,2.3s4.7-0.8,6.7-2.4c2-1.6,3.5-4.4,4.5-8.5c1.4-5.3,2.1-14.2,2.1-26.8s-0.6-21.3-1.9-26
		c-1.3-4.7-2.9-7.9-4.8-9.4C234.7,145,232.5,144.2,230,144.2z"/>
</g>
</svg>
