<?xml version="1.0" encoding="utf-8"?>
<!-- Generator: Adobe Illustrator 23.0.1, SVG Export Plug-In . SVG Version: 6.00 Build 0)  -->
<svg version="1.1" id="Layer_1" xmlns="http://www.w3.org/2000/svg" xmlns:xlink="http://www.w3.org/1999/xlink" x="0px" y="0px"
	 viewBox="0 0 373 373" style="enable-background:new 0 0 373 373;" xml:space="preserve">
<style type="text/css">
	.st0{fill:url(#SVGID_1_);}
	.st1{opacity:0.5;fill:#FFFFFF;stroke:#FFFFFF;stroke-miterlimit:10;enable-background:new    ;}
	.st2{opacity:0.9;fill:none;stroke:#FFFFFF;stroke-width:15;stroke-miterlimit:10;enable-background:new    ;}
	.st3{fill:none;}
	.st4{enable-background:new    ;}
</style>
<radialGradient id="SVGID_1_" cx="186.5" cy="361.5" r="186.5" gradientTransform="matrix(1 0 0 -1 0 548)" gradientUnits="userSpaceOnUse">
	<stop  offset="6.926126e-08" style="stop-color:#FFFFFF"/>
	<stop  offset="0.6842" style="stop-color:#FFD70F"/>
	<stop  offset="0.9955" style="stop-color:#FFC20F"/>
</radialGradient>
<circle class="st0" cx="186.5" cy="186.5" r="186.5"/>
<circle class="st1" cx="187" cy="182" r="95.5"/>
<ellipse class="st2" cx="187" cy="182" rx="110.5" ry="112.5"/>
<rect x="144.5" y="151" class="st3" width="85" height="62"/>
<g class="st4">
	<path d="M179.4,220.4v19.1h-72.1c0.8-7.2,3.1-14.1,7-20.5c3.9-6.5,11.6-15.1,23.1-25.7c9.3-8.6,15-14.5,17.1-17.6
		c2.8-4.2,4.2-8.4,4.2-12.6c0-4.6-1.2-8.1-3.7-10.6c-2.5-2.5-5.9-3.7-10.2-3.7c-4.3,0-7.7,1.3-10.3,3.9c-2.5,2.6-4,6.9-4.4,12.9
		l-20.5-2.1c1.2-11.3,5.1-19.5,11.5-24.4c6.4-4.9,14.5-7.4,24.2-7.4c10.6,0,18.9,2.9,25,8.6c6.1,5.7,9.1,12.8,9.1,21.3
		c0,4.8-0.9,9.4-2.6,13.8c-1.7,4.4-4.5,8.9-8.2,13.7c-2.5,3.2-7,7.7-13.5,13.7c-6.5,6-10.6,9.9-12.3,11.9c-1.7,2-3.1,3.9-4.2,5.7
		H179.4z"/>
	<path d="M193.6,211.9l20.5-2.1c0.6,4.6,2.3,8.3,5.2,11c2.9,2.7,6.2,4.1,10,4.1c4.3,0,7.9-1.7,10.9-5.2c3-3.5,4.5-8.8,4.5-15.8
		c0-6.6-1.5-11.5-4.4-14.8c-3-3.3-6.8-4.9-11.5-4.9c-5.9,0-11.2,2.6-15.9,7.8l-16.7-2.4l10.5-55.9H261v19.3h-38.8l-3.2,18.2
		c4.6-2.3,9.3-3.4,14.1-3.4c9.1,0,16.9,3.3,23.2,10c6.3,6.6,9.5,15.3,9.5,25.9c0,8.8-2.6,16.7-7.7,23.7c-7,9.5-16.7,14.2-29.1,14.2
		c-9.9,0-18-2.7-24.2-8C198.5,228,194.8,220.9,193.6,211.9z"/>
</g>
</svg>
