<?xml version="1.0" encoding="utf-8"?>
<!-- Generator: Adobe Illustrator 23.0.1, SVG Export Plug-In . SVG Version: 6.00 Build 0)  -->
<svg version="1.1" id="Layer_1" xmlns="http://www.w3.org/2000/svg" xmlns:xlink="http://www.w3.org/1999/xlink" x="0px" y="0px"
	 viewBox="0 0 373 373" style="enable-background:new 0 0 373 373;" xml:space="preserve">
<style type="text/css">
	.st0{fill:url(#SVGID_1_);}
	.st1{opacity:0.5;fill:#FFFFFF;stroke:#FFFFFF;stroke-miterlimit:10;enable-background:new    ;}
	.st2{opacity:0.9;fill:none;stroke:#FFFFFF;stroke-width:15;stroke-miterlimit:10;enable-background:new    ;}
	.st3{fill:none;}
	.st4{enable-background:new    ;}
</style>
<radialGradient id="SVGID_1_" cx="186.5" cy="361.5" r="186.5" gradientTransform="matrix(1 0 0 -1 0 548)" gradientUnits="userSpaceOnUse">
	<stop  offset="6.926126e-08" style="stop-color:#FFFFFF"/>
	<stop  offset="0.6842" style="stop-color:#FFD70F"/>
	<stop  offset="0.9955" style="stop-color:#FFC20F"/>
</radialGradient>
<circle class="st0" cx="186.5" cy="186.5" r="186.5"/>
<circle class="st1" cx="187" cy="182" r="95.5"/>
<ellipse class="st2" cx="187" cy="182" rx="110.5" ry="112.5"/>
<rect x="144.5" y="146" class="st3" width="85" height="62"/>
<g class="st4">
	<path d="M181,210.8V230h-72.1c0.8-7.2,3.1-14.1,7-20.5c3.9-6.5,11.6-15.1,23.1-25.7c9.3-8.6,15-14.5,17.1-17.6
		c2.8-4.2,4.2-8.4,4.2-12.6c0-4.6-1.2-8.1-3.7-10.6c-2.5-2.5-5.9-3.7-10.2-3.7c-4.3,0-7.7,1.3-10.3,3.9c-2.5,2.6-4,6.9-4.4,12.9
		l-20.5-2.1c1.2-11.3,5.1-19.5,11.5-24.4c6.4-4.9,14.5-7.4,24.2-7.4c10.6,0,18.9,2.9,25,8.6c6.1,5.7,9.1,12.8,9.1,21.3
		c0,4.8-0.9,9.4-2.6,13.8c-1.7,4.4-4.5,8.9-8.2,13.7c-2.5,3.2-7,7.7-13.5,13.7c-6.5,6-10.6,9.9-12.3,11.9c-1.7,2-3.1,3.9-4.2,5.7
		H181z"/>
	<path d="M212.5,172c-5.3-2.2-9.2-5.3-11.6-9.3c-2.4-3.9-3.6-8.2-3.6-12.9c0-8,2.8-14.6,8.4-19.8c5.6-5.2,13.5-7.8,23.8-7.8
		c10.2,0,18.1,2.6,23.8,7.8c5.6,5.2,8.5,11.8,8.5,19.8c0,5-1.3,9.4-3.9,13.3c-2.6,3.9-6.2,6.8-10.9,8.9c6,2.4,10.5,5.9,13.6,10.5
		c3.1,4.6,4.7,9.9,4.7,15.9c0,9.9-3.2,18-9.5,24.2c-6.3,6.2-14.7,9.3-25.2,9.3c-9.8,0-17.9-2.6-24.4-7.7
		c-7.7-6.1-11.5-14.4-11.5-24.9c0-5.8,1.4-11.1,4.3-16C201.8,178.4,206.3,174.7,212.5,172z M214.9,197.3c0,5.7,1.5,10.1,4.4,13.3
		c2.9,3.2,6.5,4.8,10.9,4.8c4.2,0,7.8-1.5,10.5-4.6c2.8-3.1,4.2-7.5,4.2-13.2c0-5-1.4-9.1-4.2-12.1c-2.8-3.1-6.4-4.6-10.8-4.6
		c-5,0-8.8,1.7-11.2,5.2C216.1,189.5,214.9,193.2,214.9,197.3z M216.8,151.3c0,4.1,1.2,7.3,3.5,9.6c2.3,2.3,5.4,3.4,9.3,3.4
		c3.9,0,7-1.2,9.4-3.5s3.5-5.5,3.5-9.6c0-3.9-1.2-6.9-3.5-9.3c-2.3-2.3-5.4-3.5-9.2-3.5c-4,0-7.1,1.2-9.4,3.5
		S216.8,147.4,216.8,151.3z"/>
</g>
</svg>
