<?xml version="1.0" encoding="utf-8"?>
<!-- Generator: Adobe Illustrator 23.0.1, SVG Export Plug-In . SVG Version: 6.00 Build 0)  -->
<svg version="1.1" id="Layer_1" xmlns="http://www.w3.org/2000/svg" xmlns:xlink="http://www.w3.org/1999/xlink" x="0px" y="0px"
	 viewBox="0 0 373 373" style="enable-background:new 0 0 373 373;" xml:space="preserve">
<style type="text/css">
	.st0{fill:url(#SVGID_1_);}
	.st1{opacity:0.5;fill:#FFFFFF;stroke:#FFFFFF;stroke-miterlimit:10;enable-background:new    ;}
	.st2{opacity:0.9;fill:none;stroke:#FFFFFF;stroke-width:15;stroke-miterlimit:10;enable-background:new    ;}
	.st3{fill:none;}
	.st4{enable-background:new    ;}
</style>
<radialGradient id="SVGID_1_" cx="186.5" cy="361.5" r="186.5" gradientTransform="matrix(1 0 0 -1 0 548)" gradientUnits="userSpaceOnUse">
	<stop  offset="6.926126e-08" style="stop-color:#FFFFFF"/>
	<stop  offset="0.6842" style="stop-color:#FFD70F"/>
	<stop  offset="0.9955" style="stop-color:#FFC20F"/>
</radialGradient>
<circle class="st0" cx="186.5" cy="186.5" r="186.5"/>
<circle class="st1" cx="187" cy="182" r="95.5"/>
<ellipse class="st2" cx="187" cy="182" rx="110.5" ry="112.5"/>
<rect x="144.5" y="151" class="st3" width="85" height="62"/>
<g class="st4">
	<path d="M110.1,206.5l19.9-2.4c0.6,5.1,2.3,9,5.1,11.6c2.8,2.7,6.2,4,10.1,4c4.2,0,7.8-1.6,10.7-4.8c2.9-3.2,4.4-7.6,4.4-13
		c0-5.2-1.4-9.3-4.2-12.3c-2.8-3-6.2-4.5-10.2-4.5c-2.6,0-5.8,0.5-9.4,1.5l2.3-16.8c5.6,0.1,9.8-1.1,12.7-3.6
		c2.9-2.6,4.4-6,4.4-10.2c0-3.6-1.1-6.5-3.2-8.6c-2.1-2.1-5-3.2-8.6-3.2c-3.5,0-6.5,1.2-9,3.7c-2.5,2.4-4,6-4.5,10.7l-19-3.2
		c1.3-6.5,3.3-11.7,6-15.6c2.7-3.9,6.4-6.9,11.1-9.2c4.8-2.2,10.1-3.3,16-3.3c10.1,0,18.2,3.2,24.3,9.7c5,5.3,7.5,11.2,7.5,17.9
		c0,9.4-5.2,16.9-15.5,22.6c6.2,1.3,11.1,4.3,14.8,8.9c3.7,4.6,5.5,10.1,5.5,16.6c0,9.4-3.4,17.5-10.3,24.1
		c-6.9,6.6-15.5,10-25.7,10c-9.7,0-17.8-2.8-24.2-8.4C114.8,222.8,111.1,215.5,110.1,206.5z"/>
	<path d="M229,127.2c10.4,0,18.5,3.7,24.4,11.1c7,8.8,10.5,23.4,10.5,43.7c0,20.3-3.5,34.9-10.5,43.8c-5.8,7.3-13.9,11-24.3,11
		c-10.4,0-18.9-4-25.3-12c-6.4-8-9.6-22.4-9.6-43c0-20.2,3.5-34.8,10.5-43.7C210.5,130.8,218.6,127.2,229,127.2z M229,144.2
		c-2.5,0-4.7,0.8-6.7,2.4c-2,1.6-3.5,4.4-4.5,8.5c-1.4,5.3-2.1,14.3-2.1,26.9s0.6,21.3,1.9,26c1.3,4.7,2.9,7.8,4.8,9.4
		c1.9,1.6,4.1,2.3,6.6,2.3s4.7-0.8,6.7-2.4c2-1.6,3.5-4.4,4.5-8.5c1.4-5.3,2.1-14.2,2.1-26.8s-0.6-21.3-1.9-26
		c-1.3-4.7-2.9-7.9-4.8-9.4C233.7,145,231.5,144.2,229,144.2z"/>
</g>
</svg>
