<?xml version="1.0" encoding="utf-8"?>
<!-- Generator: Adobe Illustrator 23.0.1, SVG Export Plug-In . SVG Version: 6.00 Build 0)  -->
<svg version="1.1" id="Layer_1" xmlns="http://www.w3.org/2000/svg" xmlns:xlink="http://www.w3.org/1999/xlink" x="0px" y="0px"
	 viewBox="0 0 373 373" style="enable-background:new 0 0 373 373;" xml:space="preserve">
<style type="text/css">
	.st0{fill:url(#SVGID_1_);}
	.st1{opacity:0.5;fill:#FFFFFF;stroke:#FFFFFF;stroke-miterlimit:10;enable-background:new    ;}
	.st2{opacity:0.9;fill:none;stroke:#FFFFFF;stroke-width:15;stroke-miterlimit:10;enable-background:new    ;}
	.st3{fill:none;}
	.st4{enable-background:new    ;}
</style>
<radialGradient id="SVGID_1_" cx="186.5" cy="361.5" r="186.5" gradientTransform="matrix(1 0 0 -1 0 548)" gradientUnits="userSpaceOnUse">
	<stop  offset="6.926126e-08" style="stop-color:#FFFFFF"/>
	<stop  offset="0.6842" style="stop-color:#0961AA"/>
	<stop  offset="0.9955" style="stop-color:#0949AA"/>
</radialGradient>
<circle class="st0" cx="186.5" cy="186.5" r="186.5"/>
<circle class="st1" cx="187" cy="182" r="95.5"/>
<ellipse class="st2" cx="187" cy="182" rx="110.5" ry="112.5"/>
<rect x="144" y="155.5" class="st3" width="85" height="62"/>
<g class="st4">
	<path d="M108.2,211l19.9-2.4c0.6,5.1,2.3,9,5.1,11.6c2.8,2.7,6.2,4,10.1,4c4.2,0,7.8-1.6,10.7-4.8c2.9-3.2,4.4-7.6,4.4-13
		c0-5.2-1.4-9.3-4.2-12.3c-2.8-3-6.2-4.5-10.2-4.5c-2.6,0-5.8,0.5-9.4,1.5l2.3-16.8c5.6,0.1,9.8-1.1,12.7-3.6
		c2.9-2.6,4.4-6,4.4-10.2c0-3.6-1.1-6.5-3.2-8.6c-2.1-2.1-5-3.2-8.6-3.2c-3.5,0-6.5,1.2-9,3.7c-2.5,2.4-4,6-4.5,10.7l-19-3.2
		c1.3-6.5,3.3-11.7,6-15.6c2.7-3.9,6.4-6.9,11.1-9.2c4.8-2.2,10.1-3.3,16-3.3c10.1,0,18.2,3.2,24.3,9.7c5,5.3,7.5,11.2,7.5,17.9
		c0,9.4-5.2,16.9-15.5,22.6c6.2,1.3,11.1,4.3,14.8,8.9c3.7,4.6,5.5,10.1,5.5,16.6c0,9.4-3.4,17.5-10.3,24.1
		c-6.9,6.6-15.5,10-25.7,10c-9.7,0-17.8-2.8-24.2-8.4C112.9,227.3,109.2,220,108.2,211z"/>
	<path d="M192.6,211.9l20.5-2.1c0.6,4.6,2.3,8.3,5.2,11c2.9,2.7,6.2,4.1,10,4.1c4.3,0,7.9-1.7,10.9-5.2c3-3.5,4.5-8.8,4.5-15.8
		c0-6.6-1.5-11.5-4.4-14.8c-3-3.3-6.8-4.9-11.5-4.9c-5.9,0-11.2,2.6-15.9,7.8l-16.7-2.4l10.5-55.9h54.4v19.3h-38.8l-3.2,18.2
		c4.6-2.3,9.3-3.4,14.1-3.4c9.1,0,16.9,3.3,23.2,10c6.3,6.6,9.5,15.3,9.5,25.9c0,8.8-2.6,16.7-7.7,23.7c-7,9.5-16.7,14.2-29.1,14.2
		c-9.9,0-18-2.7-24.2-8C197.6,228,193.8,220.9,192.6,211.9z"/>
</g>
</svg>
