<?xml version="1.0" encoding="utf-8"?>
<!-- Generator: Adobe Illustrator 23.0.1, SVG Export Plug-In . SVG Version: 6.00 Build 0)  -->
<svg version="1.1" id="Layer_1" xmlns="http://www.w3.org/2000/svg" xmlns:xlink="http://www.w3.org/1999/xlink" x="0px" y="0px"
	 viewBox="0 0 373 373" style="enable-background:new 0 0 373 373;" xml:space="preserve">
<style type="text/css">
	.st0{fill:url(#SVGID_1_);}
	.st1{opacity:0.5;fill:#FFFFFF;stroke:#FFFFFF;stroke-miterlimit:10;enable-background:new    ;}
	.st2{opacity:0.9;fill:none;stroke:#FFFFFF;stroke-width:15;stroke-miterlimit:10;enable-background:new    ;}
	.st3{fill:none;}
	.st4{enable-background:new    ;}
</style>
<radialGradient id="SVGID_1_" cx="186.5" cy="361.5" r="186.5" gradientTransform="matrix(1 0 0 -1 0 548)" gradientUnits="userSpaceOnUse">
	<stop  offset="6.926126e-08" style="stop-color:#FFFFFF"/>
	<stop  offset="0.6842" style="stop-color:#0961AA"/>
	<stop  offset="0.9955" style="stop-color:#0949AA"/>
</radialGradient>
<circle class="st0" cx="186.5" cy="186.5" r="186.5"/>
<circle class="st1" cx="187" cy="182" r="95.5"/>
<ellipse class="st2" cx="187" cy="182" rx="110.5" ry="112.5"/>
<rect x="144.5" y="151" class="st3" width="85" height="62"/>
<g class="st4">
	<path d="M109.9,206.5l19.9-2.4c0.6,5.1,2.3,9,5.1,11.6c2.8,2.7,6.2,4,10.1,4c4.2,0,7.8-1.6,10.7-4.8c2.9-3.2,4.4-7.6,4.4-13
		c0-5.2-1.4-9.3-4.2-12.3c-2.8-3-6.2-4.5-10.2-4.5c-2.6,0-5.8,0.5-9.4,1.5l2.3-16.8c5.6,0.1,9.8-1.1,12.7-3.6
		c2.9-2.6,4.4-6,4.4-10.2c0-3.6-1.1-6.5-3.2-8.6c-2.1-2.1-5-3.2-8.6-3.2c-3.5,0-6.5,1.2-9,3.7c-2.5,2.4-4,6-4.5,10.7l-19-3.2
		c1.3-6.5,3.3-11.7,6-15.6c2.7-3.9,6.4-6.9,11.1-9.2c4.8-2.2,10.1-3.3,16-3.3c10.1,0,18.2,3.2,24.3,9.7c5,5.3,7.5,11.2,7.5,17.9
		c0,9.4-5.2,16.9-15.5,22.6c6.2,1.3,11.1,4.3,14.8,8.9c3.7,4.6,5.5,10.1,5.5,16.6c0,9.4-3.4,17.5-10.3,24.1
		c-6.9,6.6-15.5,10-25.7,10c-9.7,0-17.8-2.8-24.2-8.4C114.6,222.8,110.9,215.5,109.9,206.5z"/>
	<path d="M194.5,210.1l19.9-2.2c0.5,4.1,1.8,7.1,3.8,9c2.1,2,4.8,2.9,8.1,2.9c4.2,0,7.9-2,10.8-5.9c3-3.9,4.9-12,5.7-24.3
		c-5.2,6-11.6,9-19.4,9c-8.4,0-15.7-3.3-21.9-9.8c-6.1-6.5-9.2-15-9.2-25.5c0-10.9,3.2-19.7,9.7-26.3c6.5-6.7,14.7-10,24.7-10
		c10.9,0,19.8,4.2,26.8,12.6c7,8.4,10.5,22.3,10.5,41.6c0,19.6-3.6,33.8-10.9,42.5c-7.3,8.7-16.7,13-28.4,13
		c-8.4,0-15.2-2.2-20.4-6.7C199.3,225.7,195.9,219,194.5,210.1z M241.1,165.2c0-6.6-1.5-11.8-4.6-15.5c-3.1-3.7-6.6-5.5-10.6-5.5
		c-3.8,0-7,1.5-9.5,4.5c-2.5,3-3.8,7.9-3.8,14.8c0,6.9,1.4,12,4.1,15.3c2.7,3.2,6.2,4.9,10.3,4.9c4,0,7.3-1.6,10-4.7
		C239.7,175.8,241.1,171.2,241.1,165.2z"/>
</g>
</svg>
