<?xml version="1.0" encoding="utf-8"?>
<!-- Generator: Adobe Illustrator 23.0.1, SVG Export Plug-In . SVG Version: 6.00 Build 0)  -->
<svg version="1.1" id="Layer_1" xmlns="http://www.w3.org/2000/svg" xmlns:xlink="http://www.w3.org/1999/xlink" x="0px" y="0px"
	 viewBox="0 0 373 373" style="enable-background:new 0 0 373 373;" xml:space="preserve">
<style type="text/css">
	.st0{fill:url(#SVGID_1_);}
	.st1{opacity:0.5;fill:#FFFFFF;stroke:#FFFFFF;stroke-miterlimit:10;enable-background:new    ;}
	.st2{opacity:0.9;fill:none;stroke:#FFFFFF;stroke-width:15;stroke-miterlimit:10;enable-background:new    ;}
	.st3{fill:none;}
	.st4{enable-background:new    ;}
</style>
<radialGradient id="SVGID_1_" cx="186.5" cy="361.5" r="186.5" gradientTransform="matrix(1 0 0 -1 0 548)" gradientUnits="userSpaceOnUse">
	<stop  offset="6.926126e-08" style="stop-color:#FFFFFF"/>
	<stop  offset="0.6797" style="stop-color:#820E4E"/>
	<stop  offset="1" style="stop-color:#720E4E"/>
</radialGradient>
<circle class="st0" cx="186.5" cy="186.5" r="186.5"/>
<circle class="st1" cx="187" cy="182" r="95.5"/>
<ellipse class="st2" cx="187" cy="182" rx="110.5" ry="112.5"/>
<rect x="144" y="155.5" class="st3" width="85" height="62"/>
<g class="st4">
	<path d="M152.2,240.4v-21.6h-43.9v-18l46.6-68.2h17.3v68.1h13.3v18.1h-13.3v21.6H152.2z M152.2,200.7V164l-24.7,36.7H152.2z"/>
	<path d="M264.8,221.3v19.1h-72.1c0.8-7.2,3.1-14.1,7-20.5c3.9-6.5,11.6-15.1,23.1-25.7c9.3-8.6,15-14.5,17.1-17.6
		c2.8-4.2,4.2-8.4,4.2-12.6c0-4.6-1.2-8.1-3.7-10.6c-2.5-2.5-5.9-3.7-10.2-3.7c-4.3,0-7.7,1.3-10.3,3.9c-2.5,2.6-4,6.9-4.4,12.9
		l-20.5-2.1c1.2-11.3,5.1-19.5,11.5-24.4c6.4-4.9,14.5-7.4,24.2-7.4c10.6,0,18.9,2.9,25,8.6c6.1,5.7,9.1,12.8,9.1,21.3
		c0,4.8-0.9,9.4-2.6,13.8c-1.7,4.4-4.5,8.9-8.2,13.7c-2.5,3.2-7,7.7-13.5,13.7c-6.5,6-10.6,9.9-12.3,11.9c-1.7,2-3.1,3.9-4.2,5.7
		H264.8z"/>
</g>
</svg>
