<?xml version="1.0" encoding="utf-8"?>
<!-- Generator: Adobe Illustrator 23.0.1, SVG Export Plug-In . SVG Version: 6.00 Build 0)  -->
<svg version="1.1" id="Layer_1" xmlns="http://www.w3.org/2000/svg" xmlns:xlink="http://www.w3.org/1999/xlink" x="0px" y="0px"
	 viewBox="0 0 373 373" style="enable-background:new 0 0 373 373;" xml:space="preserve">
<style type="text/css">
	.st0{fill:url(#SVGID_1_);}
	.st1{opacity:0.5;fill:#FFFFFF;stroke:#FFFFFF;stroke-miterlimit:10;enable-background:new    ;}
	.st2{opacity:0.9;fill:none;stroke:#FFFFFF;stroke-width:15;stroke-miterlimit:10;enable-background:new    ;}
	.st3{fill:none;}
	.st4{enable-background:new    ;}
</style>
<radialGradient id="SVGID_1_" cx="186.5" cy="361.5" r="186.5" gradientTransform="matrix(1 0 0 -1 0 548)" gradientUnits="userSpaceOnUse">
	<stop  offset="6.926126e-08" style="stop-color:#FFFFFF"/>
	<stop  offset="0.6797" style="stop-color:#820E4E"/>
	<stop  offset="1" style="stop-color:#720E4E"/>
</radialGradient>
<circle class="st0" cx="186.5" cy="186.5" r="186.5"/>
<circle class="st1" cx="187" cy="182" r="95.5"/>
<ellipse class="st2" cx="187" cy="182" rx="110.5" ry="112.5"/>
<rect x="144" y="155.5" class="st3" width="85" height="62"/>
<g class="st4">
	<path d="M152.1,235v-21.6h-43.9v-18l46.6-68.2h17.3v68.1h13.3v18.1h-13.3V235H152.1z M152.1,195.3v-36.7l-24.7,36.7H152.1z"/>
	<path d="M194.5,206.5l19.9-2.4c0.6,5.1,2.3,9,5.1,11.6c2.8,2.7,6.2,4,10.1,4c4.2,0,7.8-1.6,10.7-4.8s4.4-7.6,4.4-13
		c0-5.2-1.4-9.3-4.2-12.3c-2.8-3-6.2-4.5-10.2-4.5c-2.6,0-5.8,0.5-9.4,1.5l2.3-16.8c5.6,0.1,9.8-1.1,12.7-3.6
		c2.9-2.6,4.4-6,4.4-10.2c0-3.6-1.1-6.5-3.2-8.6c-2.1-2.1-5-3.2-8.6-3.2c-3.5,0-6.5,1.2-9,3.7c-2.5,2.4-4,6-4.5,10.7l-19-3.2
		c1.3-6.5,3.3-11.7,6-15.6c2.7-3.9,6.4-6.9,11.1-9.2c4.8-2.2,10.1-3.3,16-3.3c10.1,0,18.2,3.2,24.3,9.7c5,5.3,7.5,11.2,7.5,17.9
		c0,9.4-5.2,16.9-15.5,22.6c6.2,1.3,11.1,4.3,14.8,8.9c3.7,4.6,5.5,10.1,5.5,16.6c0,9.4-3.4,17.5-10.3,24.1
		c-6.9,6.6-15.5,10-25.7,10c-9.7,0-17.8-2.8-24.2-8.4C199.2,222.8,195.5,215.5,194.5,206.5z"/>
</g>
</svg>
