<?xml version="1.0" encoding="utf-8"?>
<!-- Generator: Adobe Illustrator 23.0.1, SVG Export Plug-In . SVG Version: 6.00 Build 0)  -->
<svg version="1.1" id="Layer_1" xmlns="http://www.w3.org/2000/svg" xmlns:xlink="http://www.w3.org/1999/xlink" x="0px" y="0px"
	 viewBox="0 0 373 373" style="enable-background:new 0 0 373 373;" xml:space="preserve">
<style type="text/css">
	.st0{fill:url(#SVGID_1_);}
	.st1{opacity:0.5;fill:#FFFFFF;stroke:#FFFFFF;stroke-miterlimit:10;enable-background:new    ;}
	.st2{opacity:0.9;fill:none;stroke:#FFFFFF;stroke-width:15;stroke-miterlimit:10;enable-background:new    ;}
	.st3{fill:none;}
	.st4{enable-background:new    ;}
</style>
<radialGradient id="SVGID_1_" cx="186.5" cy="-161.5" r="186.5" gradientTransform="matrix(1 0 0 1 0 348)" gradientUnits="userSpaceOnUse">
	<stop  offset="6.926126e-08" style="stop-color:#FFFFFF"/>
	<stop  offset="0.6797" style="stop-color:#820E4E"/>
	<stop  offset="1" style="stop-color:#720E4E"/>
</radialGradient>
<circle class="st0" cx="186.5" cy="186.5" r="186.5"/>
<circle class="st1" cx="187" cy="182" r="95.5"/>
<ellipse class="st2" cx="187" cy="182" rx="110.5" ry="112.5"/>
<rect x="144.5" y="151" class="st3" width="85" height="62"/>
<rect x="102.5" y="128" class="st3" width="168" height="108"/>
<g class="st4">
	<path d="M151.1,235v-21.6h-43.9v-18l46.6-68.2H171v68.1h13.3v18.1H171V235H151.1z M151.1,195.3v-36.7l-24.7,36.7H151.1z"/>
	<path d="M263.9,153.9l-19.9,2.2c-0.5-4.1-1.8-7.1-3.8-9.1c-2.1-2-4.7-2.9-8-2.9c-4.3,0-8,2-11,5.9c-3,3.9-4.9,12-5.7,24.4
		c5.1-6.1,11.5-9.1,19.1-9.1c8.6,0,16,3.3,22.1,9.8c6.1,6.5,9.2,15,9.2,25.3c0,11-3.2,19.8-9.7,26.4c-6.4,6.6-14.7,10-24.8,10
		c-10.8,0-19.8-4.2-26.7-12.6c-7-8.4-10.5-22.2-10.5-41.4c0-19.7,3.6-33.9,10.9-42.6c7.3-8.7,16.7-13,28.3-13
		c8.2,0,14.9,2.3,20.3,6.8C259,138.6,262.4,145.2,263.9,153.9z M217.2,198.8c0,6.7,1.5,11.9,4.6,15.5c3.1,3.6,6.6,5.5,10.5,5.5
		c3.8,0,7-1.5,9.5-4.5c2.5-3,3.8-7.9,3.8-14.6c0-7-1.4-12.1-4.1-15.3c-2.7-3.2-6.2-4.9-10.3-4.9c-4,0-7.3,1.6-10,4.7
		C218.6,188.2,217.2,192.8,217.2,198.8z"/>
</g>
</svg>
