<?xml version="1.0" encoding="utf-8"?>
<!-- Generator: Adobe Illustrator 23.0.1, SVG Export Plug-In . SVG Version: 6.00 Build 0)  -->
<svg version="1.1" id="Layer_1" xmlns="http://www.w3.org/2000/svg" xmlns:xlink="http://www.w3.org/1999/xlink" x="0px" y="0px"
	 viewBox="0 0 373 373" style="enable-background:new 0 0 373 373;" xml:space="preserve">
<style type="text/css">
	.st0{fill:url(#SVGID_1_);}
	.st1{opacity:0.5;fill:#FFFFFF;stroke:#FFFFFF;stroke-miterlimit:10;enable-background:new    ;}
	.st2{opacity:0.9;fill:none;stroke:#FFFFFF;stroke-width:15;stroke-miterlimit:10;enable-background:new    ;}
	.st3{fill:none;}
	.st4{enable-background:new    ;}
</style>
<radialGradient id="SVGID_1_" cx="186.5" cy="-161.5" r="186.5" gradientTransform="matrix(1 0 0 1 0 348)" gradientUnits="userSpaceOnUse">
	<stop  offset="6.926126e-08" style="stop-color:#FFFFFF"/>
	<stop  offset="0.6797" style="stop-color:#820E4E"/>
	<stop  offset="1" style="stop-color:#720E4E"/>
</radialGradient>
<circle class="st0" cx="186.5" cy="186.5" r="186.5"/>
<circle class="st1" cx="187" cy="182" r="95.5"/>
<ellipse class="st2" cx="187" cy="182" rx="110.5" ry="112.5"/>
<rect x="144.5" y="151" class="st3" width="85" height="62"/>
<rect x="103.5" y="124.5" class="st3" width="167" height="115"/>
<g class="st4">
	<path d="M110.6,207.4l20.5-2.1c0.6,4.6,2.3,8.3,5.2,11c2.9,2.7,6.2,4.1,10,4.1c4.3,0,7.9-1.7,10.9-5.2c3-3.5,4.5-8.8,4.5-15.8
		c0-6.6-1.5-11.5-4.4-14.8c-3-3.3-6.8-4.9-11.5-4.9c-5.9,0-11.2,2.6-15.9,7.8l-16.7-2.4l10.5-55.9h54.4v19.3h-38.8l-3.2,18.2
		c4.6-2.3,9.3-3.4,14.1-3.4c9.1,0,16.9,3.3,23.2,10c6.3,6.6,9.5,15.3,9.5,25.9c0,8.8-2.6,16.7-7.7,23.7c-7,9.5-16.7,14.2-29.1,14.2
		c-9.9,0-18-2.7-24.2-8C115.6,223.5,111.8,216.4,110.6,207.4z"/>
	<path d="M228.5,127.2c10.4,0,18.5,3.7,24.4,11.1c7,8.8,10.5,23.4,10.5,43.7c0,20.3-3.5,34.9-10.5,43.8c-5.8,7.3-13.9,11-24.3,11
		c-10.4,0-18.9-4-25.3-12c-6.4-8-9.6-22.4-9.6-43c0-20.2,3.5-34.8,10.5-43.7C210,130.8,218.1,127.2,228.5,127.2z M228.5,144.2
		c-2.5,0-4.7,0.8-6.7,2.4c-2,1.6-3.5,4.4-4.5,8.5c-1.4,5.3-2.1,14.3-2.1,26.9s0.6,21.3,1.9,26c1.3,4.7,2.9,7.8,4.8,9.4
		c1.9,1.6,4.1,2.3,6.6,2.3s4.7-0.8,6.7-2.4c2-1.6,3.5-4.4,4.5-8.5c1.4-5.3,2.1-14.2,2.1-26.8s-0.6-21.3-1.9-26
		c-1.3-4.7-2.9-7.9-4.8-9.4C233.2,145,231,144.2,228.5,144.2z"/>
</g>
</svg>
