<?xml version="1.0" encoding="utf-8"?>
<!-- Generator: Adobe Illustrator 23.0.1, SVG Export Plug-In . SVG Version: 6.00 Build 0)  -->
<svg version="1.1" id="Layer_1" xmlns="http://www.w3.org/2000/svg" xmlns:xlink="http://www.w3.org/1999/xlink" x="0px" y="0px"
	 viewBox="0 0 373 373" style="enable-background:new 0 0 373 373;" xml:space="preserve">
<style type="text/css">
	.st0{fill:url(#SVGID_1_);}
	.st1{opacity:0.5;fill:#FFFFFF;stroke:#FFFFFF;stroke-miterlimit:10;enable-background:new    ;}
	.st2{opacity:0.9;fill:none;stroke:#FFFFFF;stroke-width:15;stroke-miterlimit:10;enable-background:new    ;}
	.st3{fill:none;}
	.st4{enable-background:new    ;}
</style>
<radialGradient id="SVGID_1_" cx="186.5" cy="-161.5" r="186.5" gradientTransform="matrix(1 0 0 1 0 348)" gradientUnits="userSpaceOnUse">
	<stop  offset="6.926126e-08" style="stop-color:#FFFFFF"/>
	<stop  offset="0.6842" style="stop-color:#91F33E;stop-opacity:0.8"/>
	<stop  offset="1" style="stop-color:#4BE53E"/>
</radialGradient>
<circle class="st0" cx="186.5" cy="186.5" r="186.5"/>
<circle class="st1" cx="187" cy="182" r="95.5"/>
<ellipse class="st2" cx="187" cy="182" rx="110.5" ry="112.5"/>
<rect x="144" y="155.5" class="st3" width="85" height="62"/>
<rect x="102" y="126" class="st3" width="170" height="112"/>
<g class="st4">
	<path d="M109.9,211.8l20.5-2.1c0.6,4.6,2.3,8.3,5.2,11c2.9,2.7,6.2,4.1,10,4.1c4.3,0,7.9-1.7,10.9-5.2c3-3.5,4.5-8.8,4.5-15.8
		c0-6.6-1.5-11.5-4.4-14.8c-3-3.3-6.8-4.9-11.5-4.9c-5.9,0-11.2,2.6-15.9,7.8l-16.7-2.4l10.5-55.9h54.4v19.3h-38.8l-3.2,18.2
		c4.6-2.3,9.3-3.4,14.1-3.4c9.1,0,16.9,3.3,23.2,10c6.3,6.6,9.5,15.3,9.5,25.9c0,8.8-2.6,16.7-7.7,23.7c-7,9.5-16.7,14.2-29.1,14.2
		c-9.9,0-18-2.7-24.2-8C114.8,228,111.1,220.8,109.9,211.8z"/>
	<path d="M193.5,214.6l19.9-2.2c0.5,4.1,1.8,7.1,3.8,9c2.1,2,4.8,2.9,8.1,2.9c4.2,0,7.9-2,10.8-5.9c3-3.9,4.9-12,5.7-24.3
		c-5.2,6-11.6,9-19.4,9c-8.4,0-15.7-3.3-21.9-9.8c-6.1-6.5-9.2-15-9.2-25.5c0-10.9,3.2-19.7,9.7-26.3c6.5-6.7,14.7-10,24.7-10
		c10.9,0,19.8,4.2,26.8,12.6c7,8.4,10.5,22.3,10.5,41.6c0,19.6-3.6,33.8-10.9,42.5c-7.3,8.7-16.7,13-28.4,13
		c-8.4,0-15.2-2.2-20.4-6.7C198.2,230.2,194.9,223.5,193.5,214.6z M240,169.7c0-6.6-1.5-11.8-4.6-15.5c-3.1-3.7-6.6-5.5-10.6-5.5
		c-3.8,0-7,1.5-9.5,4.5c-2.5,3-3.8,7.9-3.8,14.8c0,6.9,1.4,12,4.1,15.3c2.7,3.2,6.2,4.9,10.3,4.9c4,0,7.3-1.6,10-4.7
		C238.7,180.3,240,175.7,240,169.7z"/>
</g>
</svg>
