<?xml version="1.0" encoding="utf-8"?>
<!-- Generator: Adobe Illustrator 23.0.1, SVG Export Plug-In . SVG Version: 6.00 Build 0)  -->
<svg version="1.1" id="Layer_1" xmlns="http://www.w3.org/2000/svg" xmlns:xlink="http://www.w3.org/1999/xlink" x="0px" y="0px"
	 viewBox="0 0 373 373" style="enable-background:new 0 0 373 373;" xml:space="preserve">
<style type="text/css">
	.st0{fill:url(#SVGID_1_);}
	.st1{opacity:0.5;fill:#FFFFFF;stroke:#FFFFFF;stroke-miterlimit:10;enable-background:new    ;}
	.st2{opacity:0.9;fill:none;stroke:#FFFFFF;stroke-width:15;stroke-miterlimit:10;enable-background:new    ;}
	.st3{fill:none;}
	.st4{enable-background:new    ;}
</style>
<radialGradient id="SVGID_1_" cx="186.5" cy="-161.5" r="186.5" gradientTransform="matrix(1 0 0 1 0 348)" gradientUnits="userSpaceOnUse">
	<stop  offset="6.926126e-08" style="stop-color:#FFFFFF"/>
	<stop  offset="0.6842" style="stop-color:#F38523"/>
	<stop  offset="1" style="stop-color:#F36523"/>
</radialGradient>
<circle class="st0" cx="186.5" cy="186.5" r="186.5"/>
<circle class="st1" cx="187" cy="182" r="95.5"/>
<ellipse class="st2" cx="187" cy="182" rx="110.5" ry="112.5"/>
<rect x="144.5" y="151" class="st3" width="85" height="62"/>
<rect x="103" y="125.5" class="st3" width="168" height="113"/>
<g class="st4">
	<path d="M179.9,153.9l-19.9,2.2c-0.5-4.1-1.8-7.1-3.8-9.1c-2.1-2-4.7-2.9-8-2.9c-4.3,0-8,2-11,5.9c-3,3.9-4.9,12-5.7,24.4
		c5.1-6.1,11.5-9.1,19.1-9.1c8.6,0,16,3.3,22.1,9.8c6.1,6.5,9.2,15,9.2,25.3c0,11-3.2,19.8-9.7,26.4c-6.4,6.6-14.7,10-24.8,10
		c-10.8,0-19.8-4.2-26.7-12.6c-7-8.4-10.5-22.2-10.5-41.4c0-19.7,3.6-33.9,10.9-42.6c7.3-8.7,16.7-13,28.3-13
		c8.2,0,14.9,2.3,20.3,6.8C175,138.6,178.4,145.2,179.9,153.9z M133.2,198.8c0,6.7,1.5,11.9,4.6,15.5c3.1,3.6,6.6,5.5,10.5,5.5
		c3.8,0,7-1.5,9.5-4.5c2.5-3,3.8-7.9,3.8-14.6c0-7-1.4-12.1-4.1-15.3c-2.7-3.2-6.2-4.9-10.3-4.9c-4,0-7.3,1.6-10,4.7
		C134.6,188.1,133.2,192.7,133.2,198.8z"/>
	<path d="M211.2,177c-5.3-2.2-9.2-5.3-11.6-9.3c-2.4-3.9-3.6-8.2-3.6-12.9c0-8,2.8-14.6,8.4-19.8c5.6-5.2,13.5-7.8,23.8-7.8
		c10.2,0,18.1,2.6,23.8,7.8c5.6,5.2,8.5,11.8,8.5,19.8c0,5-1.3,9.4-3.9,13.3c-2.6,3.9-6.2,6.8-10.9,8.9c6,2.4,10.5,5.9,13.6,10.5
		c3.1,4.6,4.7,9.9,4.7,15.9c0,9.9-3.2,18-9.5,24.2c-6.3,6.2-14.7,9.3-25.2,9.3c-9.8,0-17.9-2.6-24.4-7.7
		c-7.7-6.1-11.5-14.4-11.5-24.9c0-5.8,1.4-11.1,4.3-16C200.5,183.4,205,179.7,211.2,177z M213.6,202.3c0,5.7,1.5,10.1,4.4,13.3
		c2.9,3.2,6.5,4.8,10.9,4.8c4.2,0,7.8-1.5,10.5-4.6c2.8-3.1,4.2-7.5,4.2-13.2c0-5-1.4-9.1-4.2-12.1c-2.8-3.1-6.4-4.6-10.8-4.6
		c-5,0-8.8,1.7-11.2,5.2C214.8,194.5,213.6,198.2,213.6,202.3z M215.5,156.3c0,4.1,1.2,7.3,3.5,9.6c2.3,2.3,5.4,3.4,9.3,3.4
		c3.9,0,7-1.2,9.4-3.5s3.5-5.5,3.5-9.6c0-3.9-1.2-6.9-3.5-9.3c-2.3-2.3-5.4-3.5-9.2-3.5c-4,0-7.1,1.2-9.4,3.5
		S215.5,152.4,215.5,156.3z"/>
</g>
</svg>
