<?xml version="1.0" encoding="utf-8"?>
<!-- Generator: Adobe Illustrator 23.0.1, SVG Export Plug-In . SVG Version: 6.00 Build 0)  -->
<svg version="1.1" id="Layer_1" xmlns="http://www.w3.org/2000/svg" xmlns:xlink="http://www.w3.org/1999/xlink" x="0px" y="0px"
	 viewBox="0 0 373 373" style="enable-background:new 0 0 373 373;" xml:space="preserve">
<style type="text/css">
	.st0{fill:url(#SVGID_1_);}
	.st1{opacity:0.5;fill:#FFFFFF;stroke:#FFFFFF;stroke-miterlimit:10;enable-background:new    ;}
	.st2{opacity:0.9;fill:none;stroke:#FFFFFF;stroke-width:15;stroke-miterlimit:10;enable-background:new    ;}
	.st3{fill:none;}
	.st4{enable-background:new    ;}
</style>
<radialGradient id="SVGID_1_" cx="186.5" cy="361.5" r="186.5" gradientTransform="matrix(1 0 0 -1 0 548)" gradientUnits="userSpaceOnUse">
	<stop  offset="6.926126e-08" style="stop-color:#FFFFFF"/>
	<stop  offset="0.6842" style="stop-color:#F04160;stop-opacity:0.8"/>
	<stop  offset="1" style="stop-color:#F04160"/>
</radialGradient>
<circle class="st0" cx="186.5" cy="186.5" r="186.5"/>
<circle class="st1" cx="187" cy="182" r="95.5"/>
<ellipse class="st2" cx="187" cy="182" rx="110.5" ry="112.5"/>
<rect x="101" y="124.8" class="st3" width="171.9" height="114.5"/>
<g class="st4">
	<path d="M127.3,181.5c-5.3-2.2-9.2-5.3-11.6-9.3s-3.6-8.2-3.6-12.9c0-8,2.8-14.6,8.4-19.8c5.6-5.2,13.5-7.8,23.8-7.8
		c10.2,0,18.1,2.6,23.8,7.8c5.6,5.2,8.5,11.8,8.5,19.8c0,5-1.3,9.4-3.9,13.3c-2.6,3.9-6.2,6.8-10.9,8.9c6,2.4,10.5,5.9,13.6,10.5
		c3.1,4.6,4.7,9.9,4.7,15.9c0,9.9-3.2,18-9.5,24.2c-6.3,6.2-14.7,9.3-25.2,9.3c-9.8,0-17.9-2.6-24.4-7.7
		c-7.7-6.1-11.5-14.4-11.5-24.9c0-5.8,1.4-11.1,4.3-16C116.5,187.9,121.1,184.2,127.3,181.5z M129.6,206.8c0,5.7,1.5,10.1,4.4,13.3
		c2.9,3.2,6.5,4.8,10.9,4.8c4.2,0,7.8-1.5,10.5-4.6c2.8-3.1,4.2-7.5,4.2-13.2c0-5-1.4-9.1-4.2-12.1c-2.8-3.1-6.4-4.6-10.8-4.6
		c-5,0-8.8,1.7-11.2,5.2C130.9,199,129.6,202.7,129.6,206.8z M131.5,160.8c0,4.1,1.2,7.3,3.5,9.6c2.3,2.3,5.4,3.4,9.3,3.4
		c3.9,0,7-1.2,9.4-3.5s3.5-5.5,3.5-9.6c0-3.9-1.2-6.9-3.5-9.3c-2.3-2.3-5.4-3.5-9.2-3.5c-4,0-7.1,1.2-9.4,3.5
		S131.5,156.9,131.5,160.8z"/>
	<path d="M192.3,211l19.9-2.4c0.6,5.1,2.3,9,5.1,11.6c2.8,2.7,6.2,4,10.1,4c4.2,0,7.8-1.6,10.7-4.8s4.4-7.6,4.4-13
		c0-5.2-1.4-9.3-4.2-12.3c-2.8-3-6.2-4.5-10.2-4.5c-2.6,0-5.8,0.5-9.4,1.5l2.3-16.8c5.6,0.1,9.8-1.1,12.7-3.6
		c2.9-2.6,4.4-6,4.4-10.2c0-3.6-1.1-6.5-3.2-8.6c-2.1-2.1-5-3.2-8.6-3.2c-3.5,0-6.5,1.2-9,3.7c-2.5,2.4-4,6-4.5,10.7l-19-3.2
		c1.3-6.5,3.3-11.7,6-15.6c2.7-3.9,6.4-6.9,11.1-9.2c4.8-2.2,10.1-3.3,16-3.3c10.1,0,18.2,3.2,24.3,9.7c5,5.3,7.5,11.2,7.5,17.9
		c0,9.4-5.2,16.9-15.5,22.6c6.2,1.3,11.1,4.3,14.8,8.9c3.7,4.6,5.5,10.1,5.5,16.6c0,9.4-3.4,17.5-10.3,24.1
		c-6.9,6.6-15.5,10-25.7,10c-9.7,0-17.8-2.8-24.2-8.4C197.1,227.3,193.3,220,192.3,211z"/>
</g>
</svg>
