<?xml version="1.0" encoding="utf-8"?>
<!-- Generator: Adobe Illustrator 23.0.1, SVG Export Plug-In . SVG Version: 6.00 Build 0)  -->
<svg version="1.1" id="Layer_1" xmlns="http://www.w3.org/2000/svg" xmlns:xlink="http://www.w3.org/1999/xlink" x="0px" y="0px"
	 viewBox="0 0 373 373" style="enable-background:new 0 0 373 373;" xml:space="preserve">
<style type="text/css">
	.st0{fill:url(#SVGID_1_);}
	.st1{opacity:0.5;fill:#FFFFFF;stroke:#FFFFFF;stroke-miterlimit:10;enable-background:new    ;}
	.st2{opacity:0.9;fill:none;stroke:#FFFFFF;stroke-width:15;stroke-miterlimit:10;enable-background:new    ;}
	.st3{fill:none;}
	.st4{enable-background:new    ;}
</style>
<radialGradient id="SVGID_1_" cx="186.5" cy="361.5" r="186.5" gradientTransform="matrix(1 0 0 -1 0 548)" gradientUnits="userSpaceOnUse">
	<stop  offset="6.926126e-08" style="stop-color:#FFFFFF"/>
	<stop  offset="0.6842" style="stop-color:#F04160;stop-opacity:0.8"/>
	<stop  offset="1" style="stop-color:#F04160"/>
</radialGradient>
<circle class="st0" cx="186.5" cy="186.5" r="186.5"/>
<circle class="st1" cx="187" cy="182" r="95.5"/>
<ellipse class="st2" cx="187" cy="182" rx="110.5" ry="112.5"/>
<rect x="103.8" y="135" class="st3" width="171.2" height="112"/>
<g class="st4">
	<path d="M129.2,186c-5.3-2.2-9.2-5.3-11.6-9.3s-3.6-8.2-3.6-12.9c0-8,2.8-14.6,8.4-19.8c5.6-5.2,13.5-7.8,23.8-7.8
		c10.2,0,18.1,2.6,23.8,7.8c5.6,5.2,8.5,11.8,8.5,19.8c0,5-1.3,9.4-3.9,13.3c-2.6,3.9-6.2,6.8-10.9,8.9c6,2.4,10.5,5.9,13.6,10.5
		c3.1,4.6,4.7,9.9,4.7,15.9c0,9.9-3.2,18-9.5,24.2c-6.3,6.2-14.7,9.3-25.2,9.3c-9.8,0-17.9-2.6-24.4-7.7
		c-7.7-6.1-11.5-14.4-11.5-24.9c0-5.8,1.4-11.1,4.3-16C118.5,192.4,123,188.7,129.2,186z M131.6,211.3c0,5.7,1.5,10.1,4.4,13.3
		c2.9,3.2,6.5,4.8,10.9,4.8c4.2,0,7.8-1.5,10.5-4.6c2.8-3.1,4.2-7.5,4.2-13.2c0-5-1.4-9.1-4.2-12.1c-2.8-3.1-6.4-4.6-10.8-4.6
		c-5,0-8.8,1.7-11.2,5.2C132.8,203.5,131.6,207.2,131.6,211.3z M133.5,165.3c0,4.1,1.2,7.3,3.5,9.6c2.3,2.3,5.4,3.4,9.3,3.4
		c3.9,0,7-1.2,9.4-3.5s3.5-5.5,3.5-9.6c0-3.9-1.2-6.9-3.5-9.3c-2.3-2.3-5.4-3.5-9.2-3.5c-4,0-7.1,1.2-9.4,3.5
		S133.5,161.4,133.5,165.3z"/>
	<path d="M195.3,216.3l20.5-2.1c0.6,4.6,2.3,8.3,5.2,11c2.9,2.7,6.2,4.1,10,4.1c4.3,0,7.9-1.7,10.9-5.2c3-3.5,4.5-8.8,4.5-15.8
		c0-6.6-1.5-11.5-4.4-14.8c-3-3.3-6.8-4.9-11.5-4.9c-5.9,0-11.2,2.6-15.9,7.8l-16.7-2.4l10.5-55.9h54.4v19.3h-38.8l-3.2,18.2
		c4.6-2.3,9.3-3.4,14.1-3.4c9.1,0,16.9,3.3,23.2,10c6.3,6.6,9.5,15.3,9.5,25.9c0,8.8-2.6,16.7-7.7,23.7c-7,9.5-16.7,14.2-29.1,14.2
		c-9.9,0-18-2.7-24.2-8C200.3,232.5,196.5,225.3,195.3,216.3z"/>
</g>
</svg>
