<?xml version="1.0" encoding="utf-8"?>
<!-- Generator: Adobe Illustrator 23.0.1, SVG Export Plug-In . SVG Version: 6.00 Build 0)  -->
<svg version="1.1" id="Layer_1" xmlns="http://www.w3.org/2000/svg" xmlns:xlink="http://www.w3.org/1999/xlink" x="0px" y="0px"
	 viewBox="0 0 373 373" style="enable-background:new 0 0 373 373;" xml:space="preserve">
<style type="text/css">
	.st0{fill:url(#SVGID_1_);}
	.st1{opacity:0.5;fill:#FFFFFF;stroke:#FFFFFF;stroke-miterlimit:10;enable-background:new    ;}
	.st2{opacity:0.9;fill:none;stroke:#FFFFFF;stroke-width:15;stroke-miterlimit:10;enable-background:new    ;}
	.st3{fill:none;}
	.st4{enable-background:new    ;}
</style>
<radialGradient id="SVGID_1_" cx="186.5" cy="361.5" r="186.5" gradientTransform="matrix(1 0 0 -1 0 548)" gradientUnits="userSpaceOnUse">
	<stop  offset="6.926126e-08" style="stop-color:#FFFFFF"/>
	<stop  offset="0.6842" style="stop-color:#F04160;stop-opacity:0.8"/>
	<stop  offset="1" style="stop-color:#F04160"/>
</radialGradient>
<circle class="st0" cx="186.5" cy="186.5" r="186.5"/>
<circle class="st1" cx="187" cy="182" r="95.5"/>
<ellipse class="st2" cx="187" cy="182" rx="110.5" ry="112.5"/>
<rect x="103.3" y="125.5" class="st3" width="167.5" height="113"/>
<g class="st4">
	<path d="M127.5,181.5c-5.3-2.2-9.2-5.3-11.6-9.3s-3.6-8.2-3.6-12.9c0-8,2.8-14.6,8.4-19.8c5.6-5.2,13.5-7.8,23.8-7.8
		c10.2,0,18.1,2.6,23.8,7.8c5.6,5.2,8.5,11.8,8.5,19.8c0,5-1.3,9.4-3.9,13.3c-2.6,3.9-6.2,6.8-10.9,8.9c6,2.4,10.5,5.9,13.6,10.5
		c3.1,4.6,4.7,9.9,4.7,15.9c0,9.9-3.2,18-9.5,24.2c-6.3,6.2-14.7,9.3-25.2,9.3c-9.8,0-17.9-2.6-24.4-7.7
		c-7.7-6.1-11.5-14.4-11.5-24.9c0-5.8,1.4-11.1,4.3-16C116.8,187.9,121.3,184.2,127.5,181.5z M129.9,206.8c0,5.7,1.5,10.1,4.4,13.3
		c2.9,3.2,6.5,4.8,10.9,4.8c4.2,0,7.8-1.5,10.5-4.6c2.8-3.1,4.2-7.5,4.2-13.2c0-5-1.4-9.1-4.2-12.1c-2.8-3.1-6.4-4.6-10.8-4.6
		c-5,0-8.8,1.7-11.2,5.2C131.1,199,129.9,202.7,129.9,206.8z M131.8,160.8c0,4.1,1.2,7.3,3.5,9.6c2.3,2.3,5.4,3.4,9.3,3.4
		c3.9,0,7-1.2,9.4-3.5s3.5-5.5,3.5-9.6c0-3.9-1.2-6.9-3.5-9.3c-2.3-2.3-5.4-3.5-9.2-3.5c-4,0-7.1,1.2-9.4,3.5
		S131.8,156.9,131.8,160.8z"/>
	<path d="M193.8,214.6l19.9-2.2c0.5,4.1,1.8,7.1,3.8,9c2.1,2,4.8,2.9,8.1,2.9c4.2,0,7.9-2,10.8-5.9c3-3.9,4.9-12,5.7-24.3
		c-5.2,6-11.6,9-19.4,9c-8.4,0-15.7-3.3-21.9-9.8c-6.1-6.5-9.2-15-9.2-25.5c0-10.9,3.2-19.7,9.7-26.3c6.5-6.7,14.7-10,24.7-10
		c10.9,0,19.8,4.2,26.8,12.6c7,8.4,10.5,22.3,10.5,41.6c0,19.6-3.6,33.8-10.9,42.5c-7.3,8.7-16.7,13-28.4,13
		c-8.4,0-15.2-2.2-20.4-6.7C198.5,230.2,195.2,223.5,193.8,214.6z M240.3,169.7c0-6.6-1.5-11.8-4.6-15.5c-3.1-3.7-6.6-5.5-10.6-5.5
		c-3.8,0-7,1.5-9.5,4.5c-2.5,3-3.8,7.9-3.8,14.8c0,6.9,1.4,12,4.1,15.3c2.7,3.2,6.2,4.9,10.3,4.9c4,0,7.3-1.6,10-4.7
		C239,180.3,240.3,175.7,240.3,169.7z"/>
</g>
</svg>
