<?xml version="1.0" encoding="utf-8"?>
<!-- Generator: Adobe Illustrator 23.0.1, SVG Export Plug-In . SVG Version: 6.00 Build 0)  -->
<svg version="1.1" id="Layer_1" xmlns="http://www.w3.org/2000/svg" xmlns:xlink="http://www.w3.org/1999/xlink" x="0px" y="0px"
	 viewBox="0 0 768.5 372.3" style="enable-background:new 0 0 768.5 372.3;" xml:space="preserve">
<style type="text/css">
	.Shadow{fill:#FFFFFF;}
	.Round_x0020_Corners_x0020_10_x0020_pt{fill:none;}
	.Live_x0020_Reflect_x0020_X{fill:none;}
	.Color_x0020_Halftone{fill:url(#SVGID_1_);}
	.Arched_x0020_Green{fill:url(#SVGID_2_);stroke:#FFFFFF;stroke-width:0.25;stroke-miterlimit:1;}
	.st0{fill:url(#SVGID_3_);}
	.st1{opacity:0.1;}
	.st2{fill:url(#SVGID_4_);}
	.st3{fill:url(#SVGID_5_);}
	.st4{fill:url(#SVGID_6_);}
	.st5{fill:url(#SVGID_7_);}
	.st6{fill:url(#SVGID_8_);}
	.st7{fill:url(#SVGID_9_);}
	.st8{fill:url(#SVGID_10_);}
	.st9{fill:url(#SVGID_11_);}
	.st10{fill:url(#SVGID_12_);}
	.st11{fill:url(#SVGID_13_);}
	.st12{fill:#551714;}
</style>
<linearGradient id="SVGID_1_" gradientUnits="userSpaceOnUse" x1="312.3106" y1="240.1135" x2="313.3106" y2="240.1135">
	<stop  offset="0.191" style="stop-color:#29A0B5"/>
	<stop  offset="0.4494" style="stop-color:#D78EB2"/>
	<stop  offset="0.5562" style="stop-color:#F2E928"/>
	<stop  offset="0.7978" style="stop-color:#EA4224"/>
	<stop  offset="0.8353" style="stop-color:#EB6424"/>
	<stop  offset="0.8848" style="stop-color:#EC8B23"/>
	<stop  offset="0.9304" style="stop-color:#ECA723"/>
	<stop  offset="0.9703" style="stop-color:#EDB823"/>
	<stop  offset="1" style="stop-color:#EDBE23"/>
</linearGradient>
<linearGradient id="SVGID_2_" gradientUnits="userSpaceOnUse" x1="312.3106" y1="240.1135" x2="313.0178" y2="239.4064">
	<stop  offset="0" style="stop-color:#1EAB4B"/>
	<stop  offset="0.9831" style="stop-color:#19361A"/>
</linearGradient>
<g>
	<linearGradient id="SVGID_3_" gradientUnits="userSpaceOnUse" x1="7.0662" y1="186.1277" x2="773.0157" y2="186.1277">
		<stop  offset="0" style="stop-color:#A96A14"/>
		<stop  offset="5.389220e-02" style="stop-color:#E6A64D"/>
		<stop  offset="0.2156" style="stop-color:#965702"/>
		<stop  offset="0.6108" style="stop-color:#FFE891"/>
		<stop  offset="0.9701" style="stop-color:#BB842A"/>
	</linearGradient>
	<path class="st0" d="M760.2,303.1c0-4.2,3.7-7.7,8.3-7.7v-13.9c-4.6,0-8.3-3.4-8.3-7.7c0-4.2,3.7-7.7,8.3-7.7v-13.9
		c-4.6,0-8.3-3.4-8.3-7.7c0-4.2,3.7-7.7,8.3-7.7v-13.9c-4.6,0-8.3-3.4-8.3-7.7c0-4.2,3.7-7.7,8.3-7.7v-13.9c-4.6,0-8.3-3.4-8.3-7.7
		c0-4.2,3.7-7.7,8.3-7.7v-13.9c-4.6,0-8.3-3.4-8.3-7.7c0-4.2,3.7-7.7,8.3-7.7v-13.9c-4.6,0-8.3-3.4-8.3-7.7c0-4.2,3.7-7.7,8.3-7.7
		v-13.9c-4.6,0-8.3-3.4-8.3-7.7c0-4.2,3.7-7.7,8.3-7.7V76.8c-4.6,0-8.3-3.4-8.3-7.7c0-4.2,3.7-7.7,8.3-7.7v-8
		c-31.5,0-57-23.9-57-53.5H57c0,29.5-25.5,53.5-57,53.5v8c0.1,0,0.1,0,0.2,0c4.6,0,8.3,3.4,8.3,7.7c0,4.2-3.7,7.7-8.3,7.7
		c-0.1,0-0.1,0-0.2,0v13.9c0.1,0,0.1,0,0.2,0c4.6,0,8.3,3.4,8.3,7.7c0,4.2-3.7,7.7-8.3,7.7c-0.1,0-0.1,0-0.2,0V120
		c0.1,0,0.1,0,0.2,0c4.6,0,8.3,3.4,8.3,7.7c0,4.2-3.7,7.7-8.3,7.7c-0.1,0-0.1,0-0.2,0v13.9c0.1,0,0.1,0,0.2,0c4.6,0,8.3,3.4,8.3,7.7
		c0,4.2-3.7,7.7-8.3,7.7c-0.1,0-0.1,0-0.2,0v13.9c0.1,0,0.1,0,0.2,0c4.6,0,8.3,3.4,8.3,7.7c0,4.2-3.7,7.7-8.3,7.7
		c-0.1,0-0.1,0-0.2,0v13.9c0.1,0,0.1,0,0.2,0c4.6,0,8.3,3.4,8.3,7.7c0,4.2-3.7,7.7-8.3,7.7c-0.1,0-0.1,0-0.2,0V237
		c0.1,0,0.1,0,0.2,0c4.6,0,8.3,3.4,8.3,7.7c0,4.2-3.7,7.7-8.3,7.7c-0.1,0-0.1,0-0.2,0v13.9c0.1,0,0.1,0,0.2,0c4.6,0,8.3,3.4,8.3,7.7
		c0,4.2-3.7,7.7-8.3,7.7c-0.1,0-0.1,0-0.2,0v13.9c0.1,0,0.1,0,0.2,0c4.6,0,8.3,3.4,8.3,7.7c0,4.2-3.7,7.7-8.3,7.7
		c-0.1,0-0.1,0-0.2,0v8c31.5,0,57,23.9,57,53.5h654.5c0-29.5,25.5-53.5,57-53.5v-8C763.9,310.8,760.2,307.4,760.2,303.1z"/>
	<g>
		<g>
			<path d="M685.1,341.8H83.4l-0.6-1.5c-9-20.6-26.8-37.2-48.7-45.7l-1.5-0.6V78.2l1.5-0.6c21.9-8.5,39.7-25.2,48.7-45.7l0.6-1.5
				h601.7l0.6,1.5c9,20.6,26.8,37.2,48.7,45.7l1.6,0.6V294l-1.6,0.6c-21.9,8.5-39.7,25.1-48.7,45.7L685.1,341.8L685.1,341.8z
				 M86.7,337.1h595c9.5-20.6,27.3-37.3,49.3-46.2V81.3c-21.9-8.9-39.7-25.6-49.3-46.2h-595c-9.5,20.6-27.3,37.3-49.3,46.2v209.6
				C59.4,299.8,77.2,316.6,86.7,337.1L86.7,337.1z"/>
		</g>
	</g>
	<g>
		<g>
			<path d="M109.6,106.7c2.5,1,4.5,2.2,5.8,3.8c1.4,1.5,2.1,3.4,2.1,5.7c0,2.8-1,5-2.9,6.5c-1.5,1.2-3,1.7-4.7,1.7
				c-2.7,0-5.5-1.6-8.5-4.8c-0.9,2.1-2.2,3.8-3.9,4.9c-1.7,1.1-3.7,1.7-5.9,1.7c-3.2,0-6-1-8.4-2.9c-3.1-2.5-4.6-6.2-4.6-10.9
				c0-2.4,0.3-4,0.9-4.8c0.6-0.9,1.3-1.3,2-1.3c0.5,0,1,0.2,1.4,0.6c0.4,0.4,0.6,0.9,0.6,1.4c0,0.4-0.1,0.9-0.2,1.3
				c-0.1,0.3-0.4,1-1,2c-0.6,1-0.9,1.8-1,2.1c-0.2,0.6-0.3,1.3-0.3,2.1c0,1.8,0.7,3.3,2.2,4.6c1.5,1.3,3.2,1.9,5.2,1.9
				c1.4,0,2.9-0.3,4.2-0.9c1-0.5,1.8-0.9,2.3-1.5c0.7-0.7,1.4-1.7,2-3c0.6-1.3,0.9-2.6,0.9-4V112h0.8c0.2,1.4,0.7,2.7,1.6,4.1
				c0.9,1.4,1.9,2.4,3.1,3c1.2,0.6,2.5,0.9,4,0.9c1.9,0,3.4-0.6,4.6-1.7c1.2-1.1,1.8-2.5,1.8-4.2c0-2.7-1.5-4.9-4.6-6.7L109.6,106.7
				z"/>
			<path d="M113.1,138l4.4,8.6v0.8H85.9c-2.1,0-3.4,0.1-3.9,0.3c-0.5,0.2-0.9,0.5-1.2,1c-0.3,0.5-0.4,1.6-0.5,3.2h-1v-13.2h1
				c0,1.6,0.2,2.7,0.4,3.2s0.6,0.8,1.1,1c0.4,0.2,1.8,0.3,4,0.3h20.2c2.7,0,4.5-0.1,5.2-0.3c0.6-0.1,1-0.3,1.3-0.7
				c0.3-0.3,0.4-0.7,0.4-1.2c0-0.6-0.3-1.5-0.9-2.7L113.1,138z"/>
			<path d="M117.5,183.4h-1c-0.2-2.3-0.7-4.1-1.4-5.6c-0.7-1.4-1.8-2.9-3.3-4.3c-1.5-1.4-3.1-2.6-5-3.5c-1.8-0.9-4-1.7-6.5-2.3
				c1.8,2.5,2.7,5,2.7,7.5c0,2.4-1,4.5-3.1,6.2c-2.1,1.8-4.7,2.6-8,2.6c-3.1,0-6-0.9-8.5-2.7c-3.1-2.1-4.7-5-4.7-8.5
				c0-2.4,0.8-4.4,2.5-6.1c3.3-3.3,7.6-4.9,12.8-4.9c3.4,0,6.5,0.6,9.6,1.9c3,1.3,5.7,3.1,8,5.4c2.3,2.3,3.9,4.6,4.7,6.7
				c0.8,2.1,1.2,4.1,1.2,6V183.4z M98.2,167.3c-2.5-0.3-4.5-0.4-6-0.4c-1.8,0-3.7,0.3-5.7,0.9c-2.1,0.6-3.7,1.5-4.9,2.7
				c-0.9,0.9-1.3,1.9-1.3,3.2c0,1.5,0.8,2.8,2.3,4c1.5,1.2,3.7,1.8,6.4,1.8c3.2,0,5.9-0.6,8.2-1.8c2.3-1.2,3.4-2.8,3.4-5
				c0-0.6-0.1-1.3-0.4-2.1C99.8,169.9,99.2,168.8,98.2,167.3z"/>
			<path d="M97.8,189.4c4.3,0,8,0.6,11,1.8c3.1,1.2,5.4,2.8,6.9,4.8c1.2,1.5,1.8,3.1,1.8,4.8c0,2.7-1.5,5.1-4.4,7.3
				c-3.6,2.7-8.5,4-14.7,4c-4.3,0-8-0.6-11.1-1.8c-3-1.2-5.2-2.7-6.6-4.5c-1.4-1.8-2.1-3.6-2.1-5.3c0-3.3,2.1-6.1,6.3-8.4
				C88.5,190.3,92.8,189.4,97.8,189.4z M97.1,194.4c-5.1,0-9.3,0.6-12.6,1.8c-2.7,1-4.1,2.4-4.1,4.4c0,0.9,0.4,1.9,1.3,2.9
				c0.9,1,2.4,1.8,4.5,2.3c3.2,0.8,7.6,1.2,13.4,1.2c4.3,0,7.8-0.4,10.7-1.3c2.1-0.6,3.6-1.4,4.5-2.4c0.6-0.7,0.9-1.6,0.9-2.5
				c0-1.2-0.6-2.2-1.7-3.2c-1.5-1.2-3.9-2.1-7.2-2.5C103.5,194.7,100.3,194.4,97.1,194.4z"/>
			<path d="M86.5,239.6l-7.2-2.5v-20.7h1c5.9,6.1,10.8,10.4,14.5,12.9c3.8,2.5,7.2,3.7,10.3,3.7c2.4,0,4.3-0.7,5.9-2
				c1.5-1.4,2.3-3,2.3-4.9c0-1.7-0.5-3.3-1.6-4.7c-1.1-1.4-2.7-2.4-4.7-3v-1c3.4,0.4,6,1.5,7.8,3.3c1.8,1.8,2.7,4,2.7,6.7
				c0,2.9-1,5.2-2.9,7.1c-2,1.9-4.2,2.9-6.9,2.9c-1.9,0-3.8-0.4-5.7-1.3c-3-1.3-6.1-3.3-9.5-6.2c-5-4.3-8-7-9-8v9.2
				c0,1.9,0.1,3.2,0.2,3.9c0.1,0.8,0.4,1.4,0.9,2c0.5,0.6,1.1,1.1,1.9,1.6V239.6z"/>
			<path d="M116.7,266.1l-4.7-2v-10.6l-5-2.3c-0.7,4.6-2.5,8.2-5.4,10.9c-2.5,2.3-5.5,3.4-8.8,3.4c-2,0-3.8-0.4-5.5-1.1
				c-1.7-0.7-3.1-1.7-4.3-2.8c-1.2-1.1-2.1-2.4-2.8-3.8c-1-2-1.5-4-1.5-6.1c0-2.1,0.4-3.6,1.1-4.6c0.8-0.9,1.6-1.4,2.5-1.4
				c0.5,0,1,0.2,1.4,0.6c0.4,0.4,0.6,0.9,0.6,1.5c0,0.5-0.1,0.8-0.2,1.2c-0.1,0.3-0.5,0.9-1.1,1.7c-0.9,1.3-1.4,2.6-1.4,4
				c0,2,0.8,3.8,2.4,5.3c1.6,1.5,3.6,2.3,5.9,2.3c2.3,0,4.4-0.7,6.3-2c2-1.4,3.5-3.3,4.5-5.6c0.8-1.9,1.3-4.4,1.4-7.7l14.6,6.7
				V266.1z"/>
		</g>
		<g>
			<path d="M658.9,265.5c-2.5-1-4.5-2.2-5.8-3.8c-1.4-1.5-2.1-3.4-2.1-5.7c0-2.8,1-5,2.9-6.5c1.5-1.2,3-1.7,4.7-1.7
				c2.7,0,5.5,1.6,8.5,4.8c0.9-2.1,2.2-3.8,3.9-4.9c1.7-1.1,3.7-1.7,5.9-1.7c3.2,0,6,1,8.4,2.9c3.1,2.5,4.6,6.2,4.6,10.9
				c0,2.4-0.3,4-0.9,4.8c-0.6,0.9-1.3,1.3-2,1.3c-0.5,0-1-0.2-1.4-0.6c-0.4-0.4-0.6-0.9-0.6-1.4c0-0.4,0.1-0.9,0.2-1.3
				c0.1-0.3,0.4-1,1-2c0.6-1,0.9-1.7,1-2.1c0.2-0.6,0.3-1.3,0.3-2.1c0-1.8-0.7-3.3-2.2-4.6c-1.4-1.3-3.2-2-5.2-2
				c-1.4,0-2.9,0.3-4.3,0.9c-1,0.4-1.8,0.9-2.3,1.5c-0.7,0.7-1.4,1.7-2,3c-0.6,1.3-0.9,2.6-0.9,4v0.8h-0.8c-0.2-1.4-0.7-2.7-1.6-4.1
				c-0.9-1.4-1.9-2.4-3.1-3c-1.2-0.6-2.5-0.9-4-0.9c-1.9,0-3.4,0.6-4.6,1.7c-1.2,1.1-1.8,2.5-1.8,4.1c0,2.7,1.5,4.9,4.6,6.7
				L658.9,265.5z"/>
			<path d="M655.4,234.2l-4.4-8.6v-0.8h31.6c2.1,0,3.4-0.1,3.9-0.3c0.5-0.2,0.9-0.5,1.2-1c0.3-0.5,0.4-1.6,0.5-3.1h1v13.2h-1
				c0-1.6-0.2-2.7-0.5-3.2c-0.3-0.5-0.6-0.8-1.1-1c-0.4-0.2-1.8-0.3-4-0.3h-20.2c-2.7,0-4.5,0.1-5.2,0.3c-0.6,0.1-1,0.4-1.3,0.7
				c-0.3,0.3-0.4,0.7-0.4,1.2c0,0.6,0.3,1.5,0.9,2.7L655.4,234.2z"/>
			<path d="M651,188.9h1c0.2,2.3,0.7,4.1,1.5,5.6c0.7,1.4,1.8,2.9,3.3,4.3c1.5,1.4,3.1,2.6,5,3.5c1.8,0.9,4,1.7,6.5,2.3
				c-1.8-2.5-2.7-5-2.7-7.5c0-2.4,1-4.5,3.1-6.2c2.1-1.8,4.7-2.6,8-2.6c3.1,0,6,0.9,8.5,2.7c3.1,2.1,4.7,5,4.7,8.5
				c0,2.4-0.8,4.4-2.5,6.1c-3.3,3.3-7.6,4.9-12.8,4.9c-3.4,0-6.5-0.6-9.6-1.9c-3-1.3-5.7-3.1-8-5.4c-2.3-2.3-3.9-4.6-4.7-6.7
				c-0.8-2.1-1.2-4.1-1.2-6V188.9z M670.3,205c2.5,0.3,4.5,0.5,6,0.5c1.8,0,3.7-0.3,5.8-0.9c2.1-0.6,3.7-1.5,4.9-2.7
				c0.9-0.9,1.3-2,1.3-3.2c0-1.5-0.8-2.8-2.3-4c-1.5-1.2-3.7-1.8-6.4-1.8c-3.1,0-5.9,0.6-8.2,1.8c-2.3,1.2-3.4,2.8-3.4,5
				c0,0.6,0.1,1.3,0.4,2.1C668.7,202.4,669.3,203.5,670.3,205z"/>
			<path d="M670.7,182.9c-4.3,0-8-0.6-11-1.8c-3.1-1.2-5.4-2.8-6.9-4.8c-1.2-1.5-1.8-3.1-1.8-4.8c0-2.7,1.5-5.1,4.4-7.3
				c3.6-2.7,8.5-4,14.7-4c4.3,0,8,0.6,11.1,1.8c3,1.2,5.2,2.7,6.6,4.5c1.4,1.8,2.1,3.6,2.1,5.3c0,3.3-2.1,6.1-6.3,8.4
				C680,181.9,675.7,182.9,670.7,182.9z M671.4,177.8c5.1,0,9.4-0.6,12.6-1.8c2.7-1,4.1-2.5,4.1-4.4c0-0.9-0.4-1.9-1.3-2.9
				c-0.9-1-2.4-1.8-4.5-2.3c-3.2-0.8-7.6-1.2-13.4-1.2c-4.3,0-7.8,0.4-10.7,1.3c-2.1,0.6-3.6,1.4-4.5,2.4c-0.6,0.7-0.9,1.6-0.9,2.5
				c0,1.2,0.6,2.2,1.7,3.1c1.5,1.2,4,2.1,7.2,2.5C665,177.6,668.2,177.8,671.4,177.8z"/>
			<path d="M682,132.7l7.2,2.5v20.7h-1c-5.9-6.1-10.8-10.4-14.5-12.9c-3.8-2.5-7.2-3.7-10.3-3.7c-2.4,0-4.3,0.7-5.8,2
				c-1.5,1.4-2.3,3-2.3,4.9c0,1.7,0.5,3.3,1.6,4.7c1.1,1.4,2.6,2.4,4.7,3v1c-3.4-0.4-6-1.5-7.8-3.3c-1.8-1.8-2.7-4-2.7-6.7
				c0-2.8,1-5.2,2.9-7.1c2-1.9,4.3-2.9,6.9-2.9c1.9,0,3.8,0.4,5.7,1.3c3,1.3,6.1,3.3,9.5,6.2c5,4.3,8,7,9.1,8v-9.2
				c0-1.9-0.1-3.2-0.2-3.9c-0.1-0.8-0.4-1.4-0.9-2c-0.4-0.6-1.1-1.1-1.9-1.6V132.7z"/>
			<path d="M651.7,106.2l4.7,2v10.6l5,2.3c0.7-4.6,2.5-8.2,5.4-10.9c2.5-2.3,5.5-3.4,8.8-3.4c2,0,3.8,0.4,5.5,1.1
				c1.7,0.8,3.1,1.7,4.3,2.8c1.2,1.1,2.1,2.4,2.8,3.8c1,2,1.5,4,1.5,6.1c0,2.1-0.4,3.6-1.1,4.6c-0.8,1-1.6,1.4-2.5,1.4
				c-0.5,0-1-0.2-1.4-0.6c-0.4-0.4-0.6-0.9-0.6-1.5c0-0.5,0.1-0.8,0.2-1.2c0.1-0.3,0.5-0.9,1.1-1.7c0.9-1.3,1.4-2.6,1.4-4
				c0-2-0.8-3.8-2.4-5.3c-1.6-1.5-3.6-2.3-5.9-2.3c-2.3,0-4.4,0.7-6.3,2c-2,1.4-3.5,3.2-4.5,5.6c-0.9,1.9-1.3,4.4-1.4,7.7l-14.6-6.7
				V106.2z"/>
		</g>
	</g>
	<g>
		<g>
			<polygon points="137.6,290 132.6,290 132.6,82.3 137.6,82.3 137.6,290 			"/>
		</g>
		<g>
			<polygon points="635.9,290 630.9,290 630.9,82.3 635.9,82.3 635.9,290 			"/>
		</g>
	</g>
	<g class="st1">
		<g>
			<path d="M685.1,341.8H83.4l-0.6-1.5c-9-20.6-26.8-37.2-48.7-45.7l-1.5-0.6V78.2l1.5-0.6c21.9-8.5,39.7-25.2,48.7-45.7l0.6-1.5
				h601.7l0.6,1.5c9,20.6,26.8,37.2,48.7,45.7l1.6,0.6V294l-1.6,0.6c-21.9,8.5-39.7,25.1-48.7,45.7L685.1,341.8L685.1,341.8z
				 M86.7,337.1h595c9.5-20.6,27.3-37.3,49.3-46.2V81.3c-21.9-8.9-39.7-25.6-49.3-46.2h-595c-9.5,20.6-27.3,37.3-49.3,46.2v209.6
				C59.4,299.8,77.2,316.6,86.7,337.1L86.7,337.1z"/>
		</g>
	</g>
	<g class="st1">
		<g>
			<path d="M109.6,106.7c2.5,1,4.5,2.2,5.8,3.8c1.4,1.5,2.1,3.4,2.1,5.7c0,2.8-1,5-2.9,6.5c-1.5,1.2-3,1.7-4.7,1.7
				c-2.7,0-5.5-1.6-8.5-4.8c-0.9,2.1-2.2,3.8-3.9,4.9c-1.7,1.1-3.7,1.7-5.9,1.7c-3.2,0-6-1-8.4-2.9c-3.1-2.5-4.6-6.2-4.6-10.9
				c0-2.4,0.3-4,0.9-4.8c0.6-0.9,1.3-1.3,2-1.3c0.5,0,1,0.2,1.4,0.6c0.4,0.4,0.6,0.9,0.6,1.4c0,0.4-0.1,0.9-0.2,1.3
				c-0.1,0.3-0.4,1-1,2c-0.6,1-0.9,1.8-1,2.1c-0.2,0.6-0.3,1.3-0.3,2.1c0,1.8,0.7,3.3,2.2,4.6c1.5,1.3,3.2,1.9,5.2,1.9
				c1.4,0,2.9-0.3,4.2-0.9c1-0.5,1.8-0.9,2.3-1.5c0.7-0.7,1.4-1.7,2-3c0.6-1.3,0.9-2.6,0.9-4V112h0.8c0.2,1.4,0.7,2.7,1.6,4.1
				c0.9,1.4,1.9,2.4,3.1,3c1.2,0.6,2.5,0.9,4,0.9c1.9,0,3.4-0.6,4.6-1.7c1.2-1.1,1.8-2.5,1.8-4.2c0-2.7-1.5-4.9-4.6-6.7L109.6,106.7
				z"/>
			<path d="M113.1,138l4.4,8.6v0.8H85.9c-2.1,0-3.4,0.1-3.9,0.3c-0.5,0.2-0.9,0.5-1.2,1c-0.3,0.5-0.4,1.6-0.5,3.2h-1v-13.2h1
				c0,1.6,0.2,2.7,0.4,3.2s0.6,0.8,1.1,1c0.4,0.2,1.8,0.3,4,0.3h20.2c2.7,0,4.5-0.1,5.2-0.3c0.6-0.1,1-0.3,1.3-0.7
				c0.3-0.3,0.4-0.7,0.4-1.2c0-0.6-0.3-1.5-0.9-2.7L113.1,138z"/>
			<path d="M117.5,183.4h-1c-0.2-2.3-0.7-4.1-1.4-5.6c-0.7-1.4-1.8-2.9-3.3-4.3c-1.5-1.4-3.1-2.6-5-3.5c-1.8-0.9-4-1.7-6.5-2.3
				c1.8,2.5,2.7,5,2.7,7.5c0,2.4-1,4.5-3.1,6.2c-2.1,1.8-4.7,2.6-8,2.6c-3.1,0-6-0.9-8.5-2.7c-3.1-2.1-4.7-5-4.7-8.5
				c0-2.4,0.8-4.4,2.5-6.1c3.3-3.3,7.6-4.9,12.8-4.9c3.4,0,6.5,0.6,9.6,1.9c3,1.3,5.7,3.1,8,5.4c2.3,2.3,3.9,4.6,4.7,6.7
				c0.8,2.1,1.2,4.1,1.2,6V183.4z M98.2,167.3c-2.5-0.3-4.5-0.4-6-0.4c-1.8,0-3.7,0.3-5.7,0.9c-2.1,0.6-3.7,1.5-4.9,2.7
				c-0.9,0.9-1.3,1.9-1.3,3.2c0,1.5,0.8,2.8,2.3,4c1.5,1.2,3.7,1.8,6.4,1.8c3.2,0,5.9-0.6,8.2-1.8c2.3-1.2,3.4-2.8,3.4-5
				c0-0.6-0.1-1.3-0.4-2.1C99.8,169.9,99.2,168.8,98.2,167.3z"/>
			<path d="M97.8,189.4c4.3,0,8,0.6,11,1.8c3.1,1.2,5.4,2.8,6.9,4.8c1.2,1.5,1.8,3.1,1.8,4.8c0,2.7-1.5,5.1-4.4,7.3
				c-3.6,2.7-8.5,4-14.7,4c-4.3,0-8-0.6-11.1-1.8c-3-1.2-5.2-2.7-6.6-4.5c-1.4-1.8-2.1-3.6-2.1-5.3c0-3.3,2.1-6.1,6.3-8.4
				C88.5,190.3,92.8,189.4,97.8,189.4z M97.1,194.4c-5.1,0-9.3,0.6-12.6,1.8c-2.7,1-4.1,2.4-4.1,4.4c0,0.9,0.4,1.9,1.3,2.9
				c0.9,1,2.4,1.8,4.5,2.3c3.2,0.8,7.6,1.2,13.4,1.2c4.3,0,7.8-0.4,10.7-1.3c2.1-0.6,3.6-1.4,4.5-2.4c0.6-0.7,0.9-1.6,0.9-2.5
				c0-1.2-0.6-2.2-1.7-3.2c-1.5-1.2-3.9-2.1-7.2-2.5C103.5,194.7,100.3,194.4,97.1,194.4z"/>
			<path d="M86.5,239.6l-7.2-2.5v-20.7h1c5.9,6.1,10.8,10.4,14.5,12.9c3.8,2.5,7.2,3.7,10.3,3.7c2.4,0,4.3-0.7,5.9-2
				c1.5-1.4,2.3-3,2.3-4.9c0-1.7-0.5-3.3-1.6-4.7c-1.1-1.4-2.7-2.4-4.7-3v-1c3.4,0.4,6,1.5,7.8,3.3c1.8,1.8,2.7,4,2.7,6.7
				c0,2.9-1,5.2-2.9,7.1c-2,1.9-4.2,2.9-6.9,2.9c-1.9,0-3.8-0.4-5.7-1.3c-3-1.3-6.1-3.3-9.5-6.2c-5-4.3-8-7-9-8v9.2
				c0,1.9,0.1,3.2,0.2,3.9c0.1,0.8,0.4,1.4,0.9,2c0.5,0.6,1.1,1.1,1.9,1.6V239.6z"/>
			<path d="M116.7,266.1l-4.7-2v-10.6l-5-2.3c-0.7,4.6-2.5,8.2-5.4,10.9c-2.5,2.3-5.5,3.4-8.8,3.4c-2,0-3.8-0.4-5.5-1.1
				c-1.7-0.7-3.1-1.7-4.3-2.8c-1.2-1.1-2.1-2.4-2.8-3.8c-1-2-1.5-4-1.5-6.1c0-2.1,0.4-3.6,1.1-4.6c0.8-0.9,1.6-1.4,2.5-1.4
				c0.5,0,1,0.2,1.4,0.6c0.4,0.4,0.6,0.9,0.6,1.5c0,0.5-0.1,0.8-0.2,1.2c-0.1,0.3-0.5,0.9-1.1,1.7c-0.9,1.3-1.4,2.6-1.4,4
				c0,2,0.8,3.8,2.4,5.3c1.6,1.5,3.6,2.3,5.9,2.3c2.3,0,4.4-0.7,6.3-2c2-1.4,3.5-3.3,4.5-5.6c0.8-1.9,1.3-4.4,1.4-7.7l14.6,6.7
				V266.1z"/>
		</g>
		<g>
			<path d="M658.9,265.5c-2.5-1-4.5-2.2-5.8-3.8c-1.4-1.5-2.1-3.4-2.1-5.7c0-2.8,1-5,2.9-6.5c1.5-1.2,3-1.7,4.7-1.7
				c2.7,0,5.5,1.6,8.5,4.8c0.9-2.1,2.2-3.8,3.9-4.9c1.7-1.1,3.7-1.7,5.9-1.7c3.2,0,6,1,8.4,2.9c3.1,2.5,4.6,6.2,4.6,10.9
				c0,2.4-0.3,4-0.9,4.8c-0.6,0.9-1.3,1.3-2,1.3c-0.5,0-1-0.2-1.4-0.6c-0.4-0.4-0.6-0.9-0.6-1.4c0-0.4,0.1-0.9,0.2-1.3
				c0.1-0.3,0.4-1,1-2c0.6-1,0.9-1.7,1-2.1c0.2-0.6,0.3-1.3,0.3-2.1c0-1.8-0.7-3.3-2.2-4.6c-1.4-1.3-3.2-2-5.2-2
				c-1.4,0-2.9,0.3-4.3,0.9c-1,0.4-1.8,0.9-2.3,1.5c-0.7,0.7-1.4,1.7-2,3c-0.6,1.3-0.9,2.6-0.9,4v0.8h-0.8c-0.2-1.4-0.7-2.7-1.6-4.1
				c-0.9-1.4-1.9-2.4-3.1-3c-1.2-0.6-2.5-0.9-4-0.9c-1.9,0-3.4,0.6-4.6,1.7c-1.2,1.1-1.8,2.5-1.8,4.1c0,2.7,1.5,4.9,4.6,6.7
				L658.9,265.5z"/>
			<path d="M655.4,234.2l-4.4-8.6v-0.8h31.6c2.1,0,3.4-0.1,3.9-0.3c0.5-0.2,0.9-0.5,1.2-1c0.3-0.5,0.4-1.6,0.5-3.1h1v13.2h-1
				c0-1.6-0.2-2.7-0.5-3.2c-0.3-0.5-0.6-0.8-1.1-1c-0.4-0.2-1.8-0.3-4-0.3h-20.2c-2.7,0-4.5,0.1-5.2,0.3c-0.6,0.1-1,0.4-1.3,0.7
				c-0.3,0.3-0.4,0.7-0.4,1.2c0,0.6,0.3,1.5,0.9,2.7L655.4,234.2z"/>
			<path d="M651,188.9h1c0.2,2.3,0.7,4.1,1.5,5.6c0.7,1.4,1.8,2.9,3.3,4.3c1.5,1.4,3.1,2.6,5,3.5c1.8,0.9,4,1.7,6.5,2.3
				c-1.8-2.5-2.7-5-2.7-7.5c0-2.4,1-4.5,3.1-6.2c2.1-1.8,4.7-2.6,8-2.6c3.1,0,6,0.9,8.5,2.7c3.1,2.1,4.7,5,4.7,8.5
				c0,2.4-0.8,4.4-2.5,6.1c-3.3,3.3-7.6,4.9-12.8,4.9c-3.4,0-6.5-0.6-9.6-1.9c-3-1.3-5.7-3.1-8-5.4c-2.3-2.3-3.9-4.6-4.7-6.7
				c-0.8-2.1-1.2-4.1-1.2-6V188.9z M670.3,205c2.5,0.3,4.5,0.5,6,0.5c1.8,0,3.7-0.3,5.8-0.9c2.1-0.6,3.7-1.5,4.9-2.7
				c0.9-0.9,1.3-2,1.3-3.2c0-1.5-0.8-2.8-2.3-4c-1.5-1.2-3.7-1.8-6.4-1.8c-3.1,0-5.9,0.6-8.2,1.8c-2.3,1.2-3.4,2.8-3.4,5
				c0,0.6,0.1,1.3,0.4,2.1C668.7,202.4,669.3,203.5,670.3,205z"/>
			<path d="M670.7,182.9c-4.3,0-8-0.6-11-1.8c-3.1-1.2-5.4-2.8-6.9-4.8c-1.2-1.5-1.8-3.1-1.8-4.8c0-2.7,1.5-5.1,4.4-7.3
				c3.6-2.7,8.5-4,14.7-4c4.3,0,8,0.6,11.1,1.8c3,1.2,5.2,2.7,6.6,4.5c1.4,1.8,2.1,3.6,2.1,5.3c0,3.3-2.1,6.1-6.3,8.4
				C680,181.9,675.7,182.9,670.7,182.9z M671.4,177.8c5.1,0,9.4-0.6,12.6-1.8c2.7-1,4.1-2.5,4.1-4.4c0-0.9-0.4-1.9-1.3-2.9
				c-0.9-1-2.4-1.8-4.5-2.3c-3.2-0.8-7.6-1.2-13.4-1.2c-4.3,0-7.8,0.4-10.7,1.3c-2.1,0.6-3.6,1.4-4.5,2.4c-0.6,0.7-0.9,1.6-0.9,2.5
				c0,1.2,0.6,2.2,1.7,3.1c1.5,1.2,4,2.1,7.2,2.5C665,177.6,668.2,177.8,671.4,177.8z"/>
			<path d="M682,132.7l7.2,2.5v20.7h-1c-5.9-6.1-10.8-10.4-14.5-12.9c-3.8-2.5-7.2-3.7-10.3-3.7c-2.4,0-4.3,0.7-5.8,2
				c-1.5,1.4-2.3,3-2.3,4.9c0,1.7,0.5,3.3,1.6,4.7c1.1,1.4,2.6,2.4,4.7,3v1c-3.4-0.4-6-1.5-7.8-3.3c-1.8-1.8-2.7-4-2.7-6.7
				c0-2.8,1-5.2,2.9-7.1c2-1.9,4.3-2.9,6.9-2.9c1.9,0,3.8,0.4,5.7,1.3c3,1.3,6.1,3.3,9.5,6.2c5,4.3,8,7,9.1,8v-9.2
				c0-1.9-0.1-3.2-0.2-3.9c-0.1-0.8-0.4-1.4-0.9-2c-0.4-0.6-1.1-1.1-1.9-1.6V132.7z"/>
			<path d="M651.7,106.2l4.7,2v10.6l5,2.3c0.7-4.6,2.5-8.2,5.4-10.9c2.5-2.3,5.5-3.4,8.8-3.4c2,0,3.8,0.4,5.5,1.1
				c1.7,0.8,3.1,1.7,4.3,2.8c1.2,1.1,2.1,2.4,2.8,3.8c1,2,1.5,4,1.5,6.1c0,2.1-0.4,3.6-1.1,4.6c-0.8,1-1.6,1.4-2.5,1.4
				c-0.5,0-1-0.2-1.4-0.6c-0.4-0.4-0.6-0.9-0.6-1.5c0-0.5,0.1-0.8,0.2-1.2c0.1-0.3,0.5-0.9,1.1-1.7c0.9-1.3,1.4-2.6,1.4-4
				c0-2-0.8-3.8-2.4-5.3c-1.6-1.5-3.6-2.3-5.9-2.3c-2.3,0-4.4,0.7-6.3,2c-2,1.4-3.5,3.2-4.5,5.6c-0.9,1.9-1.3,4.4-1.4,7.7l-14.6-6.7
				V106.2z"/>
		</g>
	</g>
	<g class="st1">
		<g>
			<polygon points="138.9,288.1 134,288.1 134,83.4 138.9,83.4 138.9,288.1 			"/>
		</g>
		<g>
			<polygon points="634.7,288.1 629.7,288.1 629.7,83.4 634.7,83.4 634.7,288.1 			"/>
		</g>
	</g>
	<g>
		<linearGradient id="SVGID_4_" gradientUnits="userSpaceOnUse" x1="206.0295" y1="249.7901" x2="206.0295" y2="190.0322">
			<stop  offset="3.958120e-03" style="stop-color:#FFF1DB"/>
			<stop  offset="0.309" style="stop-color:#D6B089"/>
			<stop  offset="0.4361" style="stop-color:#BD9069"/>
			<stop  offset="0.5772" style="stop-color:#A8744C"/>
			<stop  offset="0.7181" style="stop-color:#986037"/>
			<stop  offset="0.8574" style="stop-color:#8F542B"/>
			<stop  offset="0.9932" style="stop-color:#8C5027"/>
		</linearGradient>
		<path class="st2" d="M236.7,190v59.8h-6V202l-23.2,40.2h-3l-23.2-40v47.6h-6V190h5.1l25.7,44.3l25.4-44.3H236.7z"/>
		<linearGradient id="SVGID_5_" gradientUnits="userSpaceOnUse" x1="276.599" y1="249.7901" x2="276.599" y2="190.0322">
			<stop  offset="3.958120e-03" style="stop-color:#FFF1DB"/>
			<stop  offset="0.309" style="stop-color:#D6B089"/>
			<stop  offset="0.4361" style="stop-color:#BD9069"/>
			<stop  offset="0.5772" style="stop-color:#A8744C"/>
			<stop  offset="0.7181" style="stop-color:#986037"/>
			<stop  offset="0.8574" style="stop-color:#8F542B"/>
			<stop  offset="0.9932" style="stop-color:#8C5027"/>
		</linearGradient>
		<path class="st3" d="M293,233.8h-32.9l-7.1,16h-6.5l27-59.8h6.2l27,59.8h-6.6L293,233.8z M290.7,228.7l-14.2-32.1l-14.2,32.1
			H290.7z"/>
		<linearGradient id="SVGID_6_" gradientUnits="userSpaceOnUse" x1="332.8181" y1="250.3023" x2="332.8181" y2="189.52">
			<stop  offset="3.958120e-03" style="stop-color:#FFF1DB"/>
			<stop  offset="0.309" style="stop-color:#D6B089"/>
			<stop  offset="0.4361" style="stop-color:#BD9069"/>
			<stop  offset="0.5772" style="stop-color:#A8744C"/>
			<stop  offset="0.7181" style="stop-color:#986037"/>
			<stop  offset="0.8574" style="stop-color:#8F542B"/>
			<stop  offset="0.9932" style="stop-color:#8C5027"/>
		</linearGradient>
		<path class="st4" d="M310.8,242.5l2.4-4.9c4.2,4.2,11.7,7.3,19.5,7.3c11.1,0,15.9-4.7,15.9-10.6c0-16.4-36.4-6.3-36.4-28.4
			c0-8.8,6.8-16.4,21.8-16.4c6.7,0,13.6,2,18.3,5.3l-2.1,5c-5.1-3.3-11-5-16.2-5c-10.8,0-15.6,4.9-15.6,10.8
			c0,16.4,36.4,6.5,36.4,28.3c0,8.8-6.9,16.3-22,16.3C323.9,250.3,315.2,247.1,310.8,242.5z"/>
	</g>
	<g>
		<linearGradient id="SVGID_7_" gradientUnits="userSpaceOnUse" x1="182.0984" y1="188.7175" x2="182.0984" y2="128.9596">
			<stop  offset="0" style="stop-color:#8C5027"/>
			<stop  offset="3.280920e-02" style="stop-color:#884B25"/>
			<stop  offset="0.2345" style="stop-color:#71341E"/>
			<stop  offset="0.451" style="stop-color:#612418"/>
			<stop  offset="0.6908" style="stop-color:#581A15"/>
			<stop  offset="1" style="stop-color:#551714"/>
		</linearGradient>
		<path class="st5" d="M162.4,129h6.2v54.3h33.1v5.5h-39.3C162.4,188.7,162.4,129,162.4,129z"/>
		<linearGradient id="SVGID_8_" gradientUnits="userSpaceOnUse" x1="236.7559" y1="189.2297" x2="236.7559" y2="128.4474">
			<stop  offset="0" style="stop-color:#8C5027"/>
			<stop  offset="3.280920e-02" style="stop-color:#884B25"/>
			<stop  offset="0.2345" style="stop-color:#71341E"/>
			<stop  offset="0.451" style="stop-color:#612418"/>
			<stop  offset="0.6908" style="stop-color:#581A15"/>
			<stop  offset="1" style="stop-color:#551714"/>
		</linearGradient>
		<path class="st6" d="M205.7,158.8c0-17.4,13.2-30.4,31.1-30.4c17.7,0,31,12.9,31,30.4s-13.3,30.4-31,30.4
			C218.9,189.2,205.7,176.3,205.7,158.8z M261.5,158.8c0-14.3-10.6-24.8-24.7-24.8c-14.3,0-24.9,10.5-24.9,24.8s10.6,24.8,24.9,24.8
			C251,183.6,261.5,173.1,261.5,158.8z"/>
		<linearGradient id="SVGID_9_" gradientUnits="userSpaceOnUse" x1="295.5497" y1="188.7175" x2="295.5497" y2="128.9595">
			<stop  offset="0" style="stop-color:#8C5027"/>
			<stop  offset="3.280920e-02" style="stop-color:#884B25"/>
			<stop  offset="0.2345" style="stop-color:#71341E"/>
			<stop  offset="0.451" style="stop-color:#612418"/>
			<stop  offset="0.6908" style="stop-color:#581A15"/>
			<stop  offset="1" style="stop-color:#551714"/>
		</linearGradient>
		<path class="st7" d="M292.4,134.4h-20.8V129h47.8v5.5h-20.8v54.3h-6.2V134.4z"/>
	</g>
	<linearGradient id="SVGID_10_" gradientUnits="userSpaceOnUse" x1="364.3465" y1="247.9103" x2="364.3465" y2="128.3944">
		<stop  offset="3.958120e-03" style="stop-color:#FFF1DB"/>
		<stop  offset="0.309" style="stop-color:#D6B089"/>
		<stop  offset="0.5991" style="stop-color:#91562D"/>
		<stop  offset="0.6189" style="stop-color:#8C5027"/>
		<stop  offset="0.6421" style="stop-color:#834724"/>
		<stop  offset="0.7084" style="stop-color:#6F321D"/>
		<stop  offset="0.7822" style="stop-color:#602318"/>
		<stop  offset="0.869" style="stop-color:#581A15"/>
		<stop  offset="1" style="stop-color:#551714"/>
	</linearGradient>
	<path class="st8" d="M358.1,139.3h-41.5v-10.9h95.6v10.9h-41.5v108.6h-12.5V139.3z"/>
	<linearGradient id="SVGID_11_" gradientUnits="userSpaceOnUse" x1="445.054" y1="247.9103" x2="445.054" y2="128.3944">
		<stop  offset="3.958120e-03" style="stop-color:#FFF1DB"/>
		<stop  offset="0.309" style="stop-color:#D6B089"/>
		<stop  offset="0.6567" style="stop-color:#91562D"/>
		<stop  offset="0.6803" style="stop-color:#8C5027"/>
		<stop  offset="0.7066" style="stop-color:#793C20"/>
		<stop  offset="0.7398" style="stop-color:#692B1B"/>
		<stop  offset="0.7811" style="stop-color:#5D2017"/>
		<stop  offset="0.8391" style="stop-color:#571915"/>
		<stop  offset="1" style="stop-color:#551714"/>
	</linearGradient>
	<path class="st9" d="M486.8,237v10.9h-83.6V128.4h81v10.9h-68.5v42.5h61.1v10.8h-61.1V237C415.8,237,486.8,237,486.8,237z"/>
	<linearGradient id="SVGID_12_" gradientUnits="userSpaceOnUse" x1="529.6204" y1="247.9103" x2="529.6204" y2="128.3944">
		<stop  offset="3.958120e-03" style="stop-color:#FFF1DB"/>
		<stop  offset="0.309" style="stop-color:#D6B089"/>
		<stop  offset="0.6567" style="stop-color:#91562D"/>
		<stop  offset="0.6803" style="stop-color:#8C5027"/>
		<stop  offset="0.6931" style="stop-color:#874A25"/>
		<stop  offset="0.7556" style="stop-color:#71341E"/>
		<stop  offset="0.8232" style="stop-color:#612418"/>
		<stop  offset="0.8991" style="stop-color:#581A15"/>
		<stop  offset="1" style="stop-color:#551714"/>
	</linearGradient>
	<path class="st10" d="M563.1,247.9l-27-38.4c-3,0.3-6.1,0.5-9.5,0.5h-31.7v37.9h-12.5V128.4h44.2c30.1,0,48.3,15.4,48.3,41
		c0,18.8-9.8,31.9-27,37.6l28.9,41H563.1z M562.5,169.4c0-19.1-12.5-30-36.1-30h-31.4v59.9h31.4C550,199.3,562.5,188.2,562.5,169.4z
		"/>
	<g>
		<linearGradient id="SVGID_13_" gradientUnits="userSpaceOnUse" x1="593.9865" y1="185.7521" x2="593.9865" y2="125.9941">
			<stop  offset="3.958120e-03" style="stop-color:#FFF1DB"/>
			<stop  offset="0.309" style="stop-color:#D6B089"/>
			<stop  offset="0.6567" style="stop-color:#91562D"/>
			<stop  offset="0.6803" style="stop-color:#8C5027"/>
			<stop  offset="0.6986" style="stop-color:#844724"/>
			<stop  offset="0.7556" style="stop-color:#6F321D"/>
			<stop  offset="0.8187" style="stop-color:#602318"/>
			<stop  offset="0.8921" style="stop-color:#581A15"/>
			<stop  offset="1" style="stop-color:#551714"/>
		</linearGradient>
		<path class="st11" d="M597.1,165.1v20.7h-6.2v-20.7L567.3,126h6.7l20.3,33.5l20.3-33.5h6.2L597.1,165.1z"/>
	</g>
	<rect x="271.6" y="128.4" class="st12" width="45" height="10.9"/>
</g>
</svg>
